<svg id="Layer_1" data-name="Layer 1" xmlns="http://www.w3.org/2000/svg" viewBox="0 0 1006.81 826.89"><defs><style>.cls-1{fill:#e8e8e8;}.cls-2{fill:#ffe9bd;}.cls-3{fill:#e15843;}.cls-4{fill:#d33f2f;}.cls-5{fill:#292e30;}.cls-6{fill:#ffb829;}.cls-7{fill:#f4a61c;}.cls-8{fill:#fff;}.cls-9{fill:#c8cbcc;}.cls-10{fill:#16171e;}.cls-11{fill:#9b9b9b;}.cls-12{fill:#1c457f;}.cls-13{fill:#4366b1;}.cls-14{fill:#2d508e;}.cls-15{fill:#1b3d6d;}.cls-16{fill:#7194d3;}.cls-17{fill:#e89510;}.cls-18{fill:#ffd694;}.cls-19{fill:#ffcd7d;}.cls-20{fill:#ffa293;}.cls-21{fill:#323536;}.cls-22{fill:#ef877d;}.cls-23{fill:#0c0e0f;}.cls-24{fill:#3674b5;}.cls-25{fill:#578fca;}.cls-26{fill:#fff2d9;}.cls-27{fill:#ea9b0f;}</style></defs><title>login</title><path class="cls-1" d="M261.12,556.34a32,32,0,1,0,42.72,14.8A32,32,0,0,0,261.12,556.34Zm17.57,36.19a8.27,8.27,0,1,1,3.83-11A8.26,8.26,0,0,1,278.69,592.53Z" transform="translate(-178.59 -66.56)"/><path class="cls-1" d="M351.4,531.75l-20.52,2.93h0a74.79,74.79,0,0,0-12.38-11l.31-20.85a8.19,8.19,0,0,0-5.5-7.85l-12.77-4.42a8.18,8.18,0,0,0-9.22,2.83L278.88,510h0a74.4,74.4,0,0,0-16.49,1h0l-14.52-15a8.19,8.19,0,0,0-9.44-1.66l-12.16,5.9a8.17,8.17,0,0,0-4.52,8.52l2.94,20.54h0a73.23,73.23,0,0,0-11,12.34h0l-20.85-.31a8.18,8.18,0,0,0-7.85,5.5l-4.43,12.77a8.18,8.18,0,0,0,2.83,9.22L200,581.29a74.7,74.7,0,0,0,1,16.52l-15,14.52a8.19,8.19,0,0,0-1.66,9.44l5.9,12.16a8.18,8.18,0,0,0,8.52,4.52l20.52-2.94h0a74.79,74.79,0,0,0,12.38,11l-.31,20.84a8.18,8.18,0,0,0,5.5,7.85l12.77,4.42a8.16,8.16,0,0,0,9.22-2.82l12.44-16.6a73.11,73.11,0,0,0,16.48-1h0l14.54,15a8.18,8.18,0,0,0,9.44,1.66l12.15-5.9a8.18,8.18,0,0,0,4.52-8.52l-2.94-20.52h0a73.59,73.59,0,0,0,11-12.36h0l20.86.31a8.17,8.17,0,0,0,7.84-5.5l4.43-12.77a8.18,8.18,0,0,0-2.83-9.22l-16.58-12.43a74.7,74.7,0,0,0-1-16.52l15-14.53a8.18,8.18,0,0,0,1.66-9.44l-5.9-12.15A8.17,8.17,0,0,0,351.4,531.75ZM298.57,633.47a53.77,53.77,0,1,1,24.87-71.85A53.77,53.77,0,0,1,298.57,633.47Z" transform="translate(-178.59 -66.56)"/><path class="cls-1" d="M426,141.6A21.47,21.47,0,1,0,456,146.67,21.48,21.48,0,0,0,426,141.6Zm15.65,22a5.55,5.55,0,1,1,1.31-7.74A5.55,5.55,0,0,1,441.69,163.63Z" transform="translate(-178.59 -66.56)"/><path class="cls-1" d="M483.11,115.3l-13.27,4.22h0a50.16,50.16,0,0,0-9.42-5.9l-2.11-13.84a5.49,5.49,0,0,0-4.51-4.59l-8.95-1.52a5.5,5.5,0,0,0-5.79,2.9L432.65,109h0a50.44,50.44,0,0,0-10.82,2.47h0l-11.28-8.3a5.51,5.51,0,0,0-6.44-.05l-7.39,5.26a5.49,5.49,0,0,0-2.06,6.14l4.23,13.28h0a49,49,0,0,0-5.9,9.39h0l-13.85,2.11a5.49,5.49,0,0,0-4.59,4.51L373,152.73a5.49,5.49,0,0,0,2.89,5.79l12.37,6.39a49.36,49.36,0,0,0,2.49,10.84L382.49,187a5.49,5.49,0,0,0-.05,6.44l5.25,7.39a5.49,5.49,0,0,0,6.15,2l13.26-4.22h0a50.16,50.16,0,0,0,9.42,5.9l2.11,13.84a5.49,5.49,0,0,0,4.52,4.59l8.94,1.52a5.5,5.5,0,0,0,5.8-2.9l6.4-12.37a49.7,49.7,0,0,0,10.8-2.48h0l11.29,8.31a5.51,5.51,0,0,0,6.44,0l7.4-5.26a5.5,5.5,0,0,0,2-6.14l-4.22-13.27h0a50,50,0,0,0,5.89-9.41h0l13.85-2.12a5.49,5.49,0,0,0,4.59-4.51l1.51-8.94a5.5,5.5,0,0,0-2.89-5.8l-12.37-6.39a49.49,49.49,0,0,0-2.49-10.84l8.3-11.28a5.46,5.46,0,0,0,.05-6.43l-5.25-7.4A5.48,5.48,0,0,0,483.11,115.3Zm-23.72,73.24a36.11,36.11,0,1,1,8.51-50.35A36.11,36.11,0,0,1,459.39,188.54Z" transform="translate(-178.59 -66.56)"/><path class="cls-1" d="M1058,624.67a22.82,22.82,0,1,0,31.7,6A22.81,22.81,0,0,0,1058,624.67Zm16.16,23.73a5.9,5.9,0,1,1,1.56-8.19A5.9,5.9,0,0,1,1074.2,648.4Z" transform="translate(-178.59 -66.56)"/><path class="cls-1" d="M1119.24,597.94l-14.19,4.21h0a53.52,53.52,0,0,0-9.88-6.47l-1.94-14.75a5.83,5.83,0,0,0-4.7-5l-9.47-1.8a5.85,5.85,0,0,0-6.22,3l-7.07,13h0a52.62,52.62,0,0,0-11.55,2.39h0l-11.81-9.06a5.83,5.83,0,0,0-6.83-.19l-8,5.42a5.85,5.85,0,0,0-2.32,6.49l4.21,14.2h0a52.62,52.62,0,0,0-6.47,9.85h0l-14.76,1.95a5.83,5.83,0,0,0-5,4.69l-1.8,9.48a5.83,5.83,0,0,0,3,6.21l13,7.06a52.84,52.84,0,0,0,2.41,11.57L1010.8,672a5.84,5.84,0,0,0-.19,6.84l5.42,8a5.84,5.84,0,0,0,6.49,2.31l14.18-4.2h0a53.17,53.17,0,0,0,9.88,6.47l2,14.76a5.83,5.83,0,0,0,4.69,5l9.47,1.8a5.84,5.84,0,0,0,6.22-2.95l7.07-13a52.58,52.58,0,0,0,11.54-2.41h0l11.82,9.06a5.84,5.84,0,0,0,6.84.2l8-5.43a5.83,5.83,0,0,0,2.31-6.48l-4.2-14.19h0a52.22,52.22,0,0,0,6.46-9.87h0l14.75-1.94a5.84,5.84,0,0,0,5-4.7l1.8-9.47a5.85,5.85,0,0,0-3-6.22l-13-7.06a53.34,53.34,0,0,0-2.41-11.56l9-11.81a5.83,5.83,0,0,0,.2-6.83l-5.43-8A5.84,5.84,0,0,0,1119.24,597.94Zm-26.76,77.31a38.38,38.38,0,1,1,10.11-53.31A38.39,38.39,0,0,1,1092.48,675.25Z" transform="translate(-178.59 -66.56)"/><path class="cls-1" d="M990,285.75a28.24,28.24,0,1,0,39.69,4.43A28.23,28.23,0,0,0,990,285.75Zm22.18,27.76a7.3,7.3,0,1,1,1.15-10.26A7.3,7.3,0,0,1,1012.19,313.51Z" transform="translate(-178.59 -66.56)"/><path class="cls-1" d="M1063,247l-17.1,6.52h0a65.85,65.85,0,0,0-12.8-7.05l-3.8-18a7.2,7.2,0,0,0-6.26-5.69l-11.86-1.33a7.25,7.25,0,0,0-7.4,4.23l-7.49,16.73h0a65.55,65.55,0,0,0-14,4.05h0l-15.43-10.07a7.23,7.23,0,0,0-8.46.41L949,244.22a7.23,7.23,0,0,0-2.24,8.22l6.54,17.13h0a64.54,64.54,0,0,0-7,12.77h0l-18,3.8a7.23,7.23,0,0,0-5.7,6.26l-1.32,11.86a7.22,7.22,0,0,0,4.23,7.4l16.71,7.48a65.29,65.29,0,0,0,4.07,14.05l-10.06,15.42a7.21,7.21,0,0,0,.41,8.46L944,366.4a7.24,7.24,0,0,0,8.22,2.24l17.11-6.53h0a66.22,66.22,0,0,0,12.81,7.05l3.79,18a7.23,7.23,0,0,0,6.27,5.69l11.86,1.32a7.21,7.21,0,0,0,7.39-4.23l7.49-16.72a64.6,64.6,0,0,0,14-4.06h0l15.45,10.07a7.21,7.21,0,0,0,8.45-.4l9.32-7.45a7.22,7.22,0,0,0,2.24-8.22l-6.52-17.11h0a65.18,65.18,0,0,0,7-12.78v0l18-3.79a7.22,7.22,0,0,0,5.69-6.27l1.33-11.86a7.21,7.21,0,0,0-4.23-7.39l-16.71-7.48a66.28,66.28,0,0,0-4.07-14.05L1079.08,267a7.23,7.23,0,0,0-.41-8.46l-7.45-9.32A7.21,7.21,0,0,0,1063,247Zm-25.71,97.93a47.5,47.5,0,1,1,7.44-66.75A47.51,47.51,0,0,1,1037.29,344.91Z" transform="translate(-178.59 -66.56)"/><polygon class="cls-2" points="123.88 429.77 137.2 406.47 143.72 395.07 146.14 407.98 151.08 434.36 123.88 429.77"/><polygon class="cls-3" points="120.57 449.36 120.57 449.36 66.98 767.08 94.18 771.67 145.94 464.82 145.94 464.82 151.11 434.18 149.56 426.27 142.04 432.65 138.7 424.81 132.98 431.12 127.97 422.63 123.91 429.59 120.57 449.36"/><polygon class="cls-4" points="149.89 427.94 149.56 426.27 149.28 426.51 149.89 427.94"/><polygon class="cls-4" points="120.57 449.36 66.98 767.08 94.18 771.67 94.54 769.55 76.59 766.52 130.19 448.79 133.21 430.86 132.98 431.12 127.97 422.63 123.91 429.59 120.57 449.36"/><path class="cls-5" d="M315.8,473l6.51-11.4,2.42,12.91A11.63,11.63,0,0,1,315.8,473Z" transform="translate(-178.59 -66.56)"/><path class="cls-5" d="M250.16,809.79l26.11,4.41a2.75,2.75,0,0,1,2.26,3.18h0a2.77,2.77,0,0,1-3.18,2.26l-26.11-4.41a2.76,2.76,0,0,1-2.26-3.18h0A2.77,2.77,0,0,1,250.16,809.79Z" transform="translate(-178.59 -66.56)"/><path class="cls-5" d="M251.44,802.18l26.12,4.4a2.77,2.77,0,0,1,2.26,3.18h0a2.77,2.77,0,0,1-3.18,2.26l-26.12-4.4a2.78,2.78,0,0,1-2.26-3.18h0A2.76,2.76,0,0,1,251.44,802.18Z" transform="translate(-178.59 -66.56)"/><path class="cls-5" d="M252.73,794.56,278.84,799a2.75,2.75,0,0,1,2.26,3.17h0a2.77,2.77,0,0,1-3.18,2.27L251.81,800a2.76,2.76,0,0,1-2.26-3.18h0A2.77,2.77,0,0,1,252.73,794.56Z" transform="translate(-178.59 -66.56)"/><path class="cls-6" d="M249.25,820.44H268a6.22,6.22,0,0,1,6.22,6.22v27.68a3.57,3.57,0,0,1-3.57,3.57H246.6a3.57,3.57,0,0,1-3.57-3.57V826.66a6.22,6.22,0,0,1,6.22-6.22Z" transform="translate(195.48 1643.12) rotate(-170.43)"/><path class="cls-7" d="M245.86,821.09,241,849.86a5.27,5.27,0,0,0,4.32,6.07l4.16.7,4.65-27.57a3,3,0,0,1,3.48-2.48l18.43,3.11.57-3.42a3,3,0,0,0-2.47-3.48l-24.8-4.18A3,3,0,0,0,245.86,821.09Z" transform="translate(-178.59 -66.56)"/><circle class="cls-5" cx="740.69" cy="187.46" r="120.87" transform="translate(-94.21 512.1) rotate(-45)"/><path class="cls-8" d="M782.33,88.88A107,107,0,1,1,642.1,145.81,107,107,0,0,1,782.33,88.88Z" transform="translate(-178.59 -66.56)"/><path class="cls-8" d="M782.33,88.88A107,107,0,1,1,642.1,145.81,107,107,0,0,1,782.33,88.88Z" transform="translate(-178.59 -66.56)"/><path class="cls-5" d="M805.76,215c-.18.43-.87.55-1.54.27L749.28,192c-.67-.28-1.06-.86-.88-1.29s.87-.55,1.54-.27l54.94,23.21C805.55,213.94,805.94,214.52,805.76,215Z" transform="translate(-178.59 -66.56)"/><path class="cls-5" d="M800.29,207.8l-3.53,8.35a.68.68,0,0,0,.71.93l9-1.12a.68.68,0,0,0,.45-1.08l-5.47-7.22A.66.66,0,0,0,800.29,207.8Z" transform="translate(-178.59 -66.56)"/><path class="cls-5" d="M738.64,178.78a1.57,1.57,0,0,1-.86.84,1.55,1.55,0,0,1-2-.86l-17.3-42.6a1.57,1.57,0,1,1,2.9-1.18l17.29,42.61A1.53,1.53,0,0,1,738.64,178.78Z" transform="translate(-178.59 -66.56)"/><path class="cls-5" d="M716.21,128.64l-1.73,13.42a.61.61,0,0,0,.84.64l12.48-5.21a.62.62,0,0,0,.14-1.05l-10.76-8.2A.6.6,0,0,0,716.21,128.64Z" transform="translate(-178.59 -66.56)"/><path class="cls-5" d="M736.82,196.61a9.93,9.93,0,1,1,13-5.28A9.92,9.92,0,0,1,736.82,196.61Z" transform="translate(-178.59 -66.56)"/><path class="cls-5" d="M649.14,154.36a5.06,5.06,0,1,1,6.63-2.69A5.05,5.05,0,0,1,649.14,154.36Z" transform="translate(-178.59 -66.56)"/><path class="cls-5" d="M828,229.92a5.06,5.06,0,1,1,6.62-2.69A5.06,5.06,0,0,1,828,229.92Z" transform="translate(-178.59 -66.56)"/><path class="cls-5" d="M776.87,101.93a5.06,5.06,0,1,1,6.63-2.69A5,5,0,0,1,776.87,101.93Z" transform="translate(-178.59 -66.56)"/><path class="cls-5" d="M700.74,282.74a5.06,5.06,0,1,1,6.63-2.69A5.06,5.06,0,0,1,700.74,282.74Z" transform="translate(-178.59 -66.56)"/><path class="cls-9" d="M329.34,221.27v182H284.92v-182c0-18.34,9.6-33.29,21.58-33.79.21,0,.42,0,.63,0,6.14,0,11.69,3.78,15.71,9.9S329.34,211.93,329.34,221.27Z" transform="translate(-178.59 -66.56)"/><path class="cls-8" d="M740.18,247.11V858.84H373.46V825c0,18.35-9.6,33.29-21.58,33.78-.2,0-.41,0-.63,0-6.14,0-11.68-3.77-15.71-9.9a41.88,41.88,0,0,1-6.2-18.42V221.26c0-9.33-2.48-17.77-6.5-23.9s-9.58-9.9-15.71-9.9H701C722.63,187.46,740.18,214.16,740.18,247.11Z" transform="translate(-178.59 -66.56)"/><path class="cls-10" d="M740.18,859.84H373.46c-.15,0-9.75-.5-21.54,0-.18,0-.42,0-.67,0-6.28,0-12.16-3.67-16.55-10.35a42.65,42.65,0,0,1-6.35-18.87s0-.07,0-.1V221.26c0-8.83-2.25-17.12-6.34-23.35s-9.27-9.45-14.87-9.45a1,1,0,0,1,0-2H701c22.17,0,40.2,27.21,40.2,60.65V858.84A1,1,0,0,1,740.18,859.84Zm-377.64-2.23c6.51,0,10.91.23,11,.23H739.18V247.11c0-32.34-17.14-58.65-38.2-58.65H315a24.34,24.34,0,0,1,8.71,8.35c4.3,6.55,6.67,15.23,6.67,24.45v609.2a41.06,41.06,0,0,0,6,17.93c4,6.1,9.28,9.45,14.87,9.45a3.25,3.25,0,0,0,.54,0C355.7,857.67,359.37,857.61,362.54,857.61Z" transform="translate(-178.59 -66.56)"/><path class="cls-11" d="M460.94,333.78H362.86a1,1,0,0,1,0-2h98.08a1,1,0,1,1,0,2Z" transform="translate(-178.59 -66.56)"/><path class="cls-11" d="M677.19,333.78H467.39a1,1,0,0,1,0-2h209.8a1,1,0,0,1,0,2Z" transform="translate(-178.59 -66.56)"/><path class="cls-11" d="M704,334H685.64a1,1,0,0,1,0-2H704a1,1,0,0,1,0,2Z" transform="translate(-178.59 -66.56)"/><path class="cls-11" d="M704,350.93H362.86a1,1,0,0,1,0-2H704a1,1,0,0,1,0,2Z" transform="translate(-178.59 -66.56)"/><path class="cls-11" d="M491.8,366.23H362.86a1,1,0,0,1,0-2H491.8a1,1,0,0,1,0,2Z" transform="translate(-178.59 -66.56)"/><path class="cls-11" d="M703.42,366.23H506.7a1,1,0,0,1,0-2H703.42a1,1,0,1,1,0,2Z" transform="translate(-178.59 -66.56)"/><path class="cls-11" d="M460.94,383.37H362.86a1,1,0,0,1,0-2h98.08a1,1,0,0,1,0,2Z" transform="translate(-178.59 -66.56)"/><path class="cls-11" d="M677.19,383.37H467.39a1,1,0,0,1,0-2h209.8a1,1,0,0,1,0,2Z" transform="translate(-178.59 -66.56)"/><path class="cls-11" d="M704,383.59H685.64a1,1,0,0,1,0-2H704a1,1,0,0,1,0,2Z" transform="translate(-178.59 -66.56)"/><path class="cls-11" d="M460.94,598.08H362.86a1,1,0,0,1,0-2h98.08a1,1,0,0,1,0,2Z" transform="translate(-178.59 -66.56)"/><path class="cls-11" d="M677.19,598.08H467.39a1,1,0,0,1,0-2h209.8a1,1,0,0,1,0,2Z" transform="translate(-178.59 -66.56)"/><path class="cls-11" d="M704,598.29H685.64a1,1,0,1,1,0-2H704a1,1,0,0,1,0,2Z" transform="translate(-178.59 -66.56)"/><path class="cls-11" d="M704,615.22H362.86a1,1,0,0,1,0-2H704a1,1,0,0,1,0,2Z" transform="translate(-178.59 -66.56)"/><path class="cls-11" d="M491.8,630.53H362.86a1,1,0,0,1,0-2H491.8a1,1,0,0,1,0,2Z" transform="translate(-178.59 -66.56)"/><path class="cls-11" d="M703.42,630.53H506.7a1,1,0,0,1,0-2H703.42a1,1,0,0,1,0,2Z" transform="translate(-178.59 -66.56)"/><path class="cls-11" d="M460.94,647.67H362.86a1,1,0,0,1,0-2h98.08a1,1,0,0,1,0,2Z" transform="translate(-178.59 -66.56)"/><path class="cls-11" d="M677.19,647.67H467.39a1,1,0,0,1,0-2h209.8a1,1,0,0,1,0,2Z" transform="translate(-178.59 -66.56)"/><path class="cls-11" d="M704,647.88H685.64a1,1,0,0,1,0-2H704a1,1,0,0,1,0,2Z" transform="translate(-178.59 -66.56)"/><path class="cls-10" d="M401.69,446H376.18a1,1,0,0,1-1-1V419.44a1,1,0,0,1,1-1h25.51a1,1,0,0,1,1,1V445A1,1,0,0,1,401.69,446Zm-24.51-2h23.51V420.44H377.18Z" transform="translate(-178.59 -66.56)"/><path class="cls-10" d="M511.7,446H486.19a1,1,0,0,1-1-1V419.44a1,1,0,0,1,1-1H511.7a1,1,0,0,1,1,1V445A1,1,0,0,1,511.7,446Zm-24.51-2H510.7V420.44H487.19Z" transform="translate(-178.59 -66.56)"/><path class="cls-10" d="M620.64,446H595.13a1,1,0,0,1-1-1V419.44a1,1,0,0,1,1-1h25.51a1,1,0,0,1,1,1V445A1,1,0,0,1,620.64,446Zm-24.51-2h23.51V420.44H596.13Z" transform="translate(-178.59 -66.56)"/><path class="cls-11" d="M452.06,421.65H408.21a1,1,0,1,1,0-2h43.85a1,1,0,1,1,0,2Z" transform="translate(-178.59 -66.56)"/><path class="cls-11" d="M469.08,421.57h-12a1,1,0,0,1,0-2h12a1,1,0,0,1,0,2Z" transform="translate(-178.59 -66.56)"/><path class="cls-11" d="M408.21,433.27a1,1,0,0,1,0-2l23.92-.08h0a1,1,0,0,1,0,2l-23.91.08Z" transform="translate(-178.59 -66.56)"/><path class="cls-11" d="M438.75,433.27a1,1,0,0,1,0-2l30.4-.08a1,1,0,0,1,1,1,1,1,0,0,1-1,1l-30.41.08Z" transform="translate(-178.59 -66.56)"/><path class="cls-11" d="M469.08,444.89H408.21a1,1,0,1,1,0-2h60.87a1,1,0,1,1,0,2Z" transform="translate(-178.59 -66.56)"/><path class="cls-11" d="M564.71,421.61H520.86a1,1,0,0,1,0-2h43.85a1,1,0,0,1,0,2Z" transform="translate(-178.59 -66.56)"/><path class="cls-11" d="M581.73,421.53h-12a1,1,0,0,1,0-2h12a1,1,0,0,1,0,2Z" transform="translate(-178.59 -66.56)"/><path class="cls-11" d="M520.86,433.23a1,1,0,1,1,0-2l23.92-.08h0a1,1,0,0,1,0,2l-23.91.08Z" transform="translate(-178.59 -66.56)"/><path class="cls-11" d="M551.4,433.23a1,1,0,0,1,0-2l30.4-.08h0a1,1,0,0,1,0,2l-30.41.08Z" transform="translate(-178.59 -66.56)"/><path class="cls-11" d="M581.73,444.85H520.86a1,1,0,0,1,0-2h60.87a1,1,0,0,1,0,2Z" transform="translate(-178.59 -66.56)"/><path class="cls-11" d="M673.54,421.69H629.7a1,1,0,0,1,0-2h43.84a1,1,0,0,1,0,2Z" transform="translate(-178.59 -66.56)"/><path class="cls-11" d="M690.56,421.61h-12a1,1,0,0,1,0-2h12a1,1,0,0,1,0,2Z" transform="translate(-178.59 -66.56)"/><path class="cls-11" d="M629.7,433.31a1,1,0,0,1,0-2l23.91-.08h0a1,1,0,0,1,0,2l-23.92.08Z" transform="translate(-178.59 -66.56)"/><path class="cls-11" d="M660.24,433.31a1,1,0,0,1,0-2l30.41-.08h0a1,1,0,0,1,0,2l-30.4.08Z" transform="translate(-178.59 -66.56)"/><path class="cls-11" d="M690.56,444.93H629.7a1,1,0,0,1,0-2h60.86a1,1,0,0,1,0,2Z" transform="translate(-178.59 -66.56)"/><path class="cls-10" d="M401.69,563.18H376.18a1,1,0,0,1-1-1V536.67a1,1,0,0,1,1-1h25.51a1,1,0,0,1,1,1v25.51A1,1,0,0,1,401.69,563.18Zm-24.51-2h23.51V537.67H377.18Z" transform="translate(-178.59 -66.56)"/><path class="cls-10" d="M511.7,563.18H486.19a1,1,0,0,1-1-1V536.67a1,1,0,0,1,1-1H511.7a1,1,0,0,1,1,1v25.51A1,1,0,0,1,511.7,563.18Zm-24.51-2H510.7V537.67H487.19Z" transform="translate(-178.59 -66.56)"/><path class="cls-10" d="M620.64,563.18H595.13a1,1,0,0,1-1-1V536.67a1,1,0,0,1,1-1h25.51a1,1,0,0,1,1,1v25.51A1,1,0,0,1,620.64,563.18Zm-24.51-2h23.51V537.67H596.13Z" transform="translate(-178.59 -66.56)"/><path class="cls-11" d="M452.06,538.88H408.21a1,1,0,1,1,0-2h43.85a1,1,0,1,1,0,2Z" transform="translate(-178.59 -66.56)"/><path class="cls-11" d="M469.08,538.81h-12a1,1,0,1,1,0-2h12a1,1,0,0,1,0,2Z" transform="translate(-178.59 -66.56)"/><path class="cls-11" d="M408.21,550.5a1,1,0,1,1,0-2l23.92-.08h0a1,1,0,0,1,0,2l-23.91.08Z" transform="translate(-178.59 -66.56)"/><path class="cls-11" d="M438.75,550.5a1,1,0,0,1-1-1,1,1,0,0,1,1-1l30.4-.08h0a1,1,0,0,1,0,2l-30.41.08Z" transform="translate(-178.59 -66.56)"/><path class="cls-11" d="M469.08,562.12H408.21a1,1,0,1,1,0-2h60.87a1,1,0,1,1,0,2Z" transform="translate(-178.59 -66.56)"/><path class="cls-11" d="M564.71,538.84H520.86a1,1,0,0,1,0-2h43.85a1,1,0,0,1,0,2Z" transform="translate(-178.59 -66.56)"/><path class="cls-11" d="M581.73,538.77h-12a1,1,0,0,1,0-2h12a1,1,0,0,1,0,2Z" transform="translate(-178.59 -66.56)"/><path class="cls-11" d="M520.86,550.46a1,1,0,0,1-1-1,1,1,0,0,1,1-1l23.92-.07h0a1,1,0,0,1,1,1,1,1,0,0,1-1,1l-23.91.07Z" transform="translate(-178.59 -66.56)"/><path class="cls-11" d="M551.4,550.46a1,1,0,0,1-1-1,1,1,0,0,1,1-1l30.4-.07h0a1,1,0,0,1,0,2l-30.41.07Z" transform="translate(-178.59 -66.56)"/><path class="cls-11" d="M581.73,562.08H520.86a1,1,0,0,1,0-2h60.87a1,1,0,0,1,0,2Z" transform="translate(-178.59 -66.56)"/><path class="cls-11" d="M673.54,538.92H629.7a1,1,0,0,1,0-2h43.84a1,1,0,0,1,0,2Z" transform="translate(-178.59 -66.56)"/><path class="cls-11" d="M690.56,538.84h-12a1,1,0,0,1,0-2h12a1,1,0,0,1,0,2Z" transform="translate(-178.59 -66.56)"/><path class="cls-11" d="M629.7,550.54a1,1,0,0,1,0-2l23.91-.08h0a1,1,0,0,1,0,2l-23.92.08Z" transform="translate(-178.59 -66.56)"/><path class="cls-11" d="M660.24,550.54a1,1,0,0,1,0-2l30.41-.08h0a1,1,0,0,1,0,2l-30.4.08Z" transform="translate(-178.59 -66.56)"/><path class="cls-11" d="M690.56,562.16H629.7a1,1,0,0,1,0-2h60.86a1,1,0,0,1,0,2Z" transform="translate(-178.59 -66.56)"/><path class="cls-10" d="M402.29,703.43H376.78a1,1,0,0,1-1-1v-25.5a1,1,0,0,1,1-1h25.51a1,1,0,0,1,1,1v25.5A1,1,0,0,1,402.29,703.43Zm-24.51-2h23.51v-23.5H377.78Z" transform="translate(-178.59 -66.56)"/><path class="cls-10" d="M512.3,703.43H486.79a1,1,0,0,1-1-1v-25.5a1,1,0,0,1,1-1H512.3a1,1,0,0,1,1,1v25.5A1,1,0,0,1,512.3,703.43Zm-24.51-2H511.3v-23.5H487.79Z" transform="translate(-178.59 -66.56)"/><path class="cls-10" d="M621.25,703.43H595.74a1,1,0,0,1-1-1v-25.5a1,1,0,0,1,1-1h25.51a1,1,0,0,1,1,1v25.5A1,1,0,0,1,621.25,703.43Zm-24.51-2h23.51v-23.5H596.74Z" transform="translate(-178.59 -66.56)"/><path class="cls-11" d="M452.66,679.14H408.82a1,1,0,0,1,0-2h43.84a1,1,0,0,1,0,2Z" transform="translate(-178.59 -66.56)"/><path class="cls-11" d="M469.68,679.06h-12a1,1,0,0,1,0-2h12a1,1,0,1,1,0,2Z" transform="translate(-178.59 -66.56)"/><path class="cls-11" d="M408.82,690.76a1,1,0,1,1,0-2l23.91-.08h0a1,1,0,0,1,0,2l-23.92.08Z" transform="translate(-178.59 -66.56)"/><path class="cls-11" d="M439.36,690.76a1,1,0,0,1,0-2l30.41-.08h0a1,1,0,1,1,0,2l-30.4.08Z" transform="translate(-178.59 -66.56)"/><path class="cls-11" d="M469.68,702.38H408.82a1,1,0,0,1,0-2h60.86a1,1,0,0,1,0,2Z" transform="translate(-178.59 -66.56)"/><path class="cls-11" d="M565.31,679.1H521.47a1,1,0,0,1,0-2h43.84a1,1,0,0,1,0,2Z" transform="translate(-178.59 -66.56)"/><path class="cls-11" d="M582.33,679h-12a1,1,0,0,1,0-2h12a1,1,0,0,1,0,2Z" transform="translate(-178.59 -66.56)"/><path class="cls-11" d="M521.47,690.72a1,1,0,0,1,0-2l23.91-.08h0a1,1,0,0,1,0,2l-23.92.08Z" transform="translate(-178.59 -66.56)"/><path class="cls-11" d="M552,690.72a1,1,0,0,1,0-2l30.41-.08h0a1,1,0,0,1,0,2l-30.4.08Z" transform="translate(-178.59 -66.56)"/><path class="cls-11" d="M582.33,702.34H521.47a1,1,0,0,1,0-2h60.86a1,1,0,0,1,0,2Z" transform="translate(-178.59 -66.56)"/><path class="cls-11" d="M674.15,679.18H630.3a1,1,0,0,1,0-2h43.85a1,1,0,0,1,0,2Z" transform="translate(-178.59 -66.56)"/><path class="cls-11" d="M691.17,679.1h-12a1,1,0,0,1,0-2h12a1,1,0,0,1,0,2Z" transform="translate(-178.59 -66.56)"/><path class="cls-11" d="M630.3,690.8a1,1,0,0,1,0-2l23.92-.08h0a1,1,0,0,1,0,2l-23.91.08Z" transform="translate(-178.59 -66.56)"/><path class="cls-11" d="M660.84,690.8a1,1,0,1,1,0-2l30.4-.08h0a1,1,0,0,1,0,2l-30.41.08Z" transform="translate(-178.59 -66.56)"/><path class="cls-11" d="M691.17,702.41H630.3a1,1,0,0,1,0-2h60.87a1,1,0,0,1,0,2Z" transform="translate(-178.59 -66.56)"/><path class="cls-11" d="M460.94,484.07H362.86a1,1,0,0,1,0-2h98.08a1,1,0,0,1,0,2Z" transform="translate(-178.59 -66.56)"/><path class="cls-11" d="M677.19,484.07H467.39a1,1,0,0,1,0-2h209.8a1,1,0,0,1,0,2Z" transform="translate(-178.59 -66.56)"/><path class="cls-11" d="M704,484.28H685.64a1,1,0,0,1,0-2H704a1,1,0,0,1,0,2Z" transform="translate(-178.59 -66.56)"/><path class="cls-11" d="M704,501.21H362.86a1,1,0,0,1,0-2H704a1,1,0,0,1,0,2Z" transform="translate(-178.59 -66.56)"/><path class="cls-11" d="M461,741.5H362.88a1,1,0,0,1,0-2H461a1,1,0,1,1,0,2Z" transform="translate(-178.59 -66.56)"/><path class="cls-11" d="M677.2,741.5H467.41a1,1,0,0,1,0-2H677.2a1,1,0,0,1,0,2Z" transform="translate(-178.59 -66.56)"/><path class="cls-11" d="M704,741.71H685.65a1,1,0,0,1,0-2H704a1,1,0,0,1,0,2Z" transform="translate(-178.59 -66.56)"/><path class="cls-11" d="M704,758.64H362.88a1,1,0,0,1,0-2H704a1,1,0,0,1,0,2Z" transform="translate(-178.59 -66.56)"/><path class="cls-9" d="M373.46,786.26V825c0,18.35-9.6,33.29-21.58,33.78-.2,0-.41,0-.63,0H742.9c19.32,0,35-23.83,35-53.24V786.26Z" transform="translate(-178.59 -66.56)"/><path class="cls-3" d="M526.3,408.28c-11.5,5.56-20.71,14.38-28.8,24a64.25,64.25,0,0,0-14.13-7.15l-.41.46c4.5,4.23,11,10.06,15.62,14.25,9.12-9.82,19.34-21.13,28.17-31.17Z" transform="translate(-178.59 -66.56)"/><path class="cls-3" d="M636.36,666.59c-11.5,5.55-20.72,14.37-28.8,24a64.51,64.51,0,0,0-14.14-7.14l-.41.45c4.51,4.23,11,10.07,15.62,14.26,9.13-9.82,19.35-21.13,28.18-31.18Z" transform="translate(-178.59 -66.56)"/><path class="cls-3" d="M417.5,666.59c-11.5,5.55-20.72,14.37-28.8,24a64.21,64.21,0,0,0-14.13-7.14l-.41.45c4.5,4.23,11,10.07,15.61,14.26,9.13-9.82,19.35-21.13,28.18-31.18Z" transform="translate(-178.59 -66.56)"/><path class="cls-5" d="M360.65,290.84q-.33-13.26-.34-25.1t1.35-30.8a186.89,186.89,0,0,1,28-2.18v10.32q-9.49,0-17.63.59-.33,9.41-.42,14.43A126.69,126.69,0,0,1,386.75,257l1.6,9.24q-5.62.08-16.87,1.25,0,10.08.08,14.52A168.74,168.74,0,0,0,389,279.51l1.42,9.23A40.17,40.17,0,0,1,373.57,292Z" transform="translate(-178.59 -66.56)"/><path class="cls-5" d="M401.35,292.93l-8.89-2.6a170.67,170.67,0,0,1,9.73-19,68.67,68.67,0,0,1-7.05-20.73l9.32.92a82,82,0,0,0,3.44,12.08,70.66,70.66,0,0,0,7.3-14.85l7.22,3.52A62.24,62.24,0,0,1,412.1,271a59.73,59.73,0,0,0,9.4,15.36l-6.3,6a75.57,75.57,0,0,1-8.31-13.6Q402.78,288.58,401.35,292.93Z" transform="translate(-178.59 -66.56)"/><path class="cls-5" d="M431.4,254.62a11.09,11.09,0,0,1,9.23-4.57,9.08,9.08,0,0,1,8.44,4.74q2.71,4.74,2.72,13.47t-1,24.09l-7.05-.59-.68-2.69a16,16,0,0,1-8.05,2.27,9.14,9.14,0,0,1-6.8-2.73q-2.68-2.73-2.69-7.84c0-3.42,1.7-6.35,5.08-8.82a20.39,20.39,0,0,1,11.71-3.86v-2.26q0-6.63-3.19-6.63c-1.06,0-2,.74-2.9,2.22a16.77,16.77,0,0,0-1.88,5.08l-7.73-.76A26,26,0,0,1,431.4,254.62Zm2.68,26.65c0,1.79,1.07,2.68,3.19,2.68a12.08,12.08,0,0,0,4.62-1l.17-7.05a10.77,10.77,0,0,0-6,2A4.52,4.52,0,0,0,434.08,281.27Z" transform="translate(-178.59 -66.56)"/><path class="cls-5" d="M478.23,253.07a9.23,9.23,0,0,1,7.81,3.52c2.9-4.25,5.79-6.37,8.64-6.37q11.67,0,11.67,17.54a207.82,207.82,0,0,1-1.68,24l-9.74-.84q1.59-15.69,1.6-23.92t-2.69-8.22c-.78,0-1.71,1.25-2.77,3.77A30.08,30.08,0,0,0,489,271q-.17,10.49-.67,18.71l-9.82-.92q.67-11.83.67-19.47t-2.1-7.64q-1.33,0-3.48,4.66a40.46,40.46,0,0,0-3.06,9.78c.05,5.14.31,10.46.75,15.94l-9.82-.92q-.92-11.83-.92-21.57t.5-18.21l7,.5c.34,1.51.81,4.25,1.43,8.22Q473.86,253.07,478.23,253.07Z" transform="translate(-178.59 -66.56)"/><path class="cls-5" d="M516.25,235.7l9.4,1.09-.84,9.4-9.4-1.18Zm-.67,14.77,9.56.92v40.29l-9.56-.93Z" transform="translate(-178.59 -66.56)"/><path class="cls-5" d="M551.16,250.55q11.08,0,11.08,18.47,0,9.74-1.09,20.64l-9.82-.92q.92-9.57.92-19.35t-2.77-9.77q-1.34,0-3.44,6.75a60,60,0,0,0-2.6,13.22c.11,2.3.33,6.43.67,12.42l-9.82-.92q-.93-11.83-.92-20.82t.5-16.11l6.21.67q.17.67,1.26,5.46Q546.22,250.56,551.16,250.55Z" transform="translate(-178.59 -66.56)"/><path class="cls-5" d="M573.82,254.62a11.1,11.1,0,0,1,9.23-4.57,9.07,9.07,0,0,1,8.44,4.74q2.71,4.74,2.72,13.47t-1,24.09l-7.05-.59-.67-2.69a16,16,0,0,1-8.06,2.27,9.14,9.14,0,0,1-6.8-2.73q-2.68-2.73-2.68-7.84c0-3.42,1.69-6.35,5.07-8.82a20.39,20.39,0,0,1,11.71-3.86v-2.26q0-6.63-3.19-6.63c-1.06,0-2,.74-2.89,2.22a16.52,16.52,0,0,0-1.89,5.08l-7.72-.76A26,26,0,0,1,573.82,254.62Zm2.69,26.65c0,1.79,1.06,2.68,3.18,2.68a12.08,12.08,0,0,0,4.62-1l.17-7.05a10.77,10.77,0,0,0-6,2A4.51,4.51,0,0,0,576.51,281.27Z" transform="translate(-178.59 -66.56)"/><path class="cls-5" d="M621.83,255.42v8q-4,0-6.21.09-.25,8.38-.26,28.2l-9.9-.93q0-14.69.25-26.6c-.84,0-2.43.14-4.78.42l-1.26-6.88q2-.42,6.29-1.1.16-6.21.68-18.12l10,.92c-.33,5.54-.59,10.91-.75,16.11Q618,255.43,621.83,255.42Z" transform="translate(-178.59 -66.56)"/><path class="cls-5" d="M628.46,235.7l9.39,1.09-.83,9.4-9.4-1.18Zm-.68,14.77,9.57.92v40.29l-9.57-.93Z" transform="translate(-178.59 -66.56)"/><path class="cls-5" d="M643.81,274.64A38.66,38.66,0,0,1,647,259.36a15.85,15.85,0,0,1,4.74-6.16,10.85,10.85,0,0,1,6.84-2.4,12,12,0,0,1,6.51,1.72,11.3,11.3,0,0,1,4.15,4.58A27.29,27.29,0,0,1,672,269.35a34.33,34.33,0,0,1-3.73,16.24q-3.74,7.1-10.45,7.09Q643.81,292.68,643.81,274.64Zm9.82.75q0,9.5,4.2,9.49,1.84,0,3.1-5.33a44.3,44.3,0,0,0,1.26-10.2q0-10.74-3.52-10.74-2.26,0-3.65,5.75A46.73,46.73,0,0,0,653.63,275.39Z" transform="translate(-178.59 -66.56)"/><path class="cls-5" d="M694.25,250.55q11.09,0,11.08,18.47,0,9.74-1.09,20.64l-9.82-.92q.92-9.57.92-19.35t-2.77-9.77q-1.34,0-3.44,6.75a60.58,60.58,0,0,0-2.6,13.22c.11,2.3.34,6.43.67,12.42l-9.82-.92q-.92-11.83-.92-20.82t.5-16.11l6.21.67q.18.67,1.26,5.46Q689.31,250.56,694.25,250.55Z" transform="translate(-178.59 -66.56)"/><path class="cls-12" d="M1150.05,859.71h9.12a68.15,68.15,0,0,0,16.15-10c4-3.38,12-14.71,6-20.62-2.34-2.27-6.43-1.73-9.47-.57-4.83,1.82-7.81,6.54-10.46,11-.75,1.24-1.49,2.54-2.23,3.86C1156.12,848.74,1153.08,854.64,1150.05,859.71Z" transform="translate(-178.59 -66.56)"/><path class="cls-13" d="M1179.59,837.64c-5.15.05-9.58,3.45-13.6,6.68-1.13.91-2.27,1.87-3.43,2.85-3.49,3-7.08,6.22-10.58,9.21,2.39-4.22,4.78-8.78,7.17-13,.74-1.32,1.48-2.62,2.23-3.86,2.65-4.42,5.63-9.14,10.46-11,3-1.16,7.13-1.7,9.47.57s2.59,5.62,1.65,8.87A15.63,15.63,0,0,0,1179.59,837.64Z" transform="translate(-178.59 -66.56)"/><path class="cls-13" d="M1115.46,797.26c1.17,4.63,3.44,8.88,5.36,13.25s3.72,9,5.27,13.78c3.75,11.52,6.05,23.78,5.46,35.42H1143c2.67-8.41.76-16.83.9-25.65.06-3.51-.1-7-.3-10.54-.06-1.14-.13-2.28-.2-3.41-.78-12.63-1.79-26-9-36.37a13.4,13.4,0,0,0-5.37-5c-4.36-1.9-9.78.57-12.26,4.63S1114.28,792.65,1115.46,797.26Z" transform="translate(-178.59 -66.56)"/><path class="cls-12" d="M1116.8,783.41c2.48-4.06,7.9-6.53,12.26-4.63a9.54,9.54,0,0,1,1.53.86,11.32,11.32,0,0,0-3.86,3.77c-2.48,4.06-2.51,9.24-1.33,13.85s3.43,8.88,5.36,13.25,3.72,9,5.27,13.78c3.75,11.52,6,23.78,5.46,35.42h-9.94c.59-11.64-1.71-23.9-5.46-35.42-1.55-4.75-3.34-9.38-5.27-13.78s-4.19-8.62-5.36-13.25S1114.31,787.47,1116.8,783.41Z" transform="translate(-178.59 -66.56)"/><path class="cls-14" d="M1091.37,813.67a18.7,18.7,0,0,0,3.12,4.33c5.5,6.13,11.79,11.53,17,17.89a44,44,0,0,1,3,4.08,45.62,45.62,0,0,1,5.71,13,33.45,33.45,0,0,1,.75,3.74,29.11,29.11,0,0,1,.27,3h11.33A78.16,78.16,0,0,0,1131,840a87.65,87.65,0,0,0-4.89-15.73,50.49,50.49,0,0,0-17.37-21.92,16.5,16.5,0,0,0-6.08-3,10.16,10.16,0,0,0-11.27,14.27Z" transform="translate(-178.59 -66.56)"/><path class="cls-15" d="M1092.6,803a10.41,10.41,0,0,1,9.6-3.72,10.15,10.15,0,0,0-6.65,15.81,18.81,18.81,0,0,0,3.81,3.75c6.45,5.12,13.55,9.39,19.77,14.77a47.72,47.72,0,0,1,3.6,3.53,45.64,45.64,0,0,1,7.8,11.83,33.89,33.89,0,0,1,1.38,3.56c.28.89.51,1.77.7,2.64,0,1.52,0,3-.1,4.5h-11.33a29.11,29.11,0,0,0-.27-3,33.45,33.45,0,0,0-.75-3.74,45.62,45.62,0,0,0-5.71-13,44,44,0,0,0-3-4.08c-5.22-6.36-11.51-11.76-17-17.89a18.7,18.7,0,0,1-3.12-4.33A10.41,10.41,0,0,1,1092.6,803Z" transform="translate(-178.59 -66.56)"/><path class="cls-13" d="M1091.79,847.14c5,2.52,10.57,3.45,15.81,5.33s11,2,13,7.24h4.86a34,34,0,0,0-11-19.74,31.33,31.33,0,0,0-17.77-8.16,15,15,0,0,0-6.7.61,7.34,7.34,0,0,0-4.61,4.64C1084.21,841.22,1088,845.18,1091.79,847.14Z" transform="translate(-178.59 -66.56)"/><path class="cls-12" d="M1085.37,837.06a7.34,7.34,0,0,1,4.61-4.64,9,9,0,0,1,.88-.28,3.62,3.62,0,0,0-.2.55c-1.16,4.17,2.58,8.13,6.42,10.09,5,2.52,10.57,3.45,15.81,5.33,3.61,1.3,7.49,1.78,10.19,3.65a31.08,31.08,0,0,1,2.37,8h-4.86c-2-5.2-7.76-5.35-13-7.24s-10.84-2.81-15.81-5.33C1088,845.18,1084.21,841.22,1085.37,837.06Z" transform="translate(-178.59 -66.56)"/><path class="cls-14" d="M1143,859.71h8.75c2.56-5.31,5.12-10.78,7.4-16.37,4.51-11.11,7.91-22.69,7.85-34.38a19.26,19.26,0,0,0-1.28-7.76,8.42,8.42,0,0,0-5.71-5.05c-2.81-.56-5.75.84-7.69,2.94a21.85,21.85,0,0,0-4.08,7.53,105,105,0,0,0-4.64,16.9A106.29,106.29,0,0,0,1143,859.71Z" transform="translate(-178.59 -66.56)"/><path class="cls-15" d="M1143.6,823.52a105,105,0,0,1,4.64-16.9,21.85,21.85,0,0,1,4.08-7.53,10.45,10.45,0,0,1,2.35-1.88,10.5,10.5,0,0,0-1,1.43,22,22,0,0,0-2.13,8.29,105.5,105.5,0,0,0-.4,17.52,107.53,107.53,0,0,0,4.83,26.16c-1.39,3.08-2.82,6.12-4.26,9.1H1143A106.29,106.29,0,0,1,1143.6,823.52Z" transform="translate(-178.59 -66.56)"/><path class="cls-16" d="M1156,859.71h1.29c.13-.38.28-.77.45-1.14a55.14,55.14,0,0,1,8.14-13.38,41.48,41.48,0,0,1,11.48-9.88.59.59,0,0,0-.59-1,39.4,39.4,0,0,0-7.12,5.18,52.2,52.2,0,0,0-9.81,12.39A46.71,46.71,0,0,0,1156,859.71Z" transform="translate(-178.59 -66.56)"/><path class="cls-16" d="M1127.28,795.67a180.62,180.62,0,0,1,9.94,49.45q.45,7.29.27,14.59h1.2c0-.2,0-.4,0-.6a183.66,183.66,0,0,0-2.3-32.28,181.67,181.67,0,0,0-8-31.47C1128.17,794.65,1127,795,1127.28,795.67Z" transform="translate(-178.59 -66.56)"/><path class="cls-16" d="M1095.78,838.82a32.63,32.63,0,0,1,23.47,14.86c.6,1,1.15,2,1.66,3a31,31,0,0,1,1.29,3h1.26a34.48,34.48,0,0,0-3.3-6.77,33.3,33.3,0,0,0-7.22-8.08,34.19,34.19,0,0,0-17.16-7.21C1095,837.55,1095,838.73,1095.78,838.82Z" transform="translate(-178.59 -66.56)"/><path class="cls-16" d="M1148,859.71h1.18a153,153,0,0,1,9.45-49.8c.26-.72-.88-1-1.14-.32q-2.57,7-4.47,14.14A153.4,153.4,0,0,0,1148,859.71Z" transform="translate(-178.59 -66.56)"/><path class="cls-16" d="M1104.13,813.21c4.67,1.66,7.75,6,10.39,10a87.49,87.49,0,0,1,11.33,24.42,89.29,89.29,0,0,1,2.61,12.1h1.18c0-.32-.08-.62-.13-.94a89.37,89.37,0,0,0-8.34-26.44,86.37,86.37,0,0,0-7.2-12c-2.48-3.46-5.42-6.79-9.53-8.24C1103.72,811.82,1103.41,813,1104.13,813.21Z" transform="translate(-178.59 -66.56)"/><path class="cls-10" d="M1082.18,864.23H181.59a3,3,0,1,1,0-6h900.59a3,3,0,0,1,0,6Z" transform="translate(-178.59 -66.56)"/><path class="cls-10" d="M1182.41,864.23H1104.5a3,3,0,0,1,0-6h77.91a3,3,0,0,1,0,6Z" transform="translate(-178.59 -66.56)"/><path class="cls-10" d="M977.77,893.44H847.63a3,3,0,0,1,0-6H977.77a3,3,0,0,1,0,6Z" transform="translate(-178.59 -66.56)"/><path class="cls-10" d="M791,893.44H572.31a3,3,0,0,1,0-6H791a3,3,0,0,1,0,6Z" transform="translate(-178.59 -66.56)"/><path class="cls-6" d="M840.74,852.26H729.29s-.53-2.11-1.17-5.61A137.13,137.13,0,0,1,726,830.79c-.57-7.79-.49-16.69,1.29-24.82,1.33-6.18,3.68-11.92,7.48-16.38,11-12.84,26.05-26.87,34.92-39.85,4.5-6.54,7.4-12.8,7.4-18.52,0-.45,0-.9,0-1.35-.51-6.53-4.56-13.74-10.3-21.23-6.48-8.48-15.07-17.31-23.06-25.88-3.13-3.36-6.16-6.67-8.92-9.92a30.83,30.83,0,0,1-5-8.32,48.33,48.33,0,0,1-2.82-9.63,74.59,74.59,0,0,1-1.14-9.61c-1-17.67,3.43-35.11,3.43-35.11H840.74a139.48,139.48,0,0,1,3.07,19.12,99.25,99.25,0,0,1-.41,23.54c-1.17,7.56-3.64,14.7-8.16,20-14.45,16.95-36.11,36-41.22,51.87a22.9,22.9,0,0,0-1.06,5.16c0,.45,0,.9,0,1.35a20.72,20.72,0,0,0,1,6.13c2.35,7.73,8.67,16.19,16.23,24.8,1.88,2.15,3.85,4.33,5.85,6.5,3.56,3.85,7.22,7.69,10.74,11.49,3,3.21,5.86,6.36,8.5,9.45a31.26,31.26,0,0,1,5,8.42c2.68,6.44,3.78,14,4,21.33A135.68,135.68,0,0,1,840.74,852.26Z" transform="translate(-178.59 -66.56)"/><path class="cls-17" d="M844.28,819.34c-.23-7.36-1.33-14.89-4-21.33a31.26,31.26,0,0,0-5-8.42c-2.64-3.09-5.52-6.24-8.5-9.45-3.52-3.8-7.18-7.64-10.74-11.49-2-2.17-4-4.35-5.85-6.5-7.56-8.61-13.88-17.07-16.23-24.8a20.72,20.72,0,0,1-1-6.13c0-.45,0-.9,0-1.35a22.9,22.9,0,0,1,1.06-5.16c5.11-15.9,26.77-34.92,41.22-51.87,4.52-5.31,7-12.45,8.16-20a99.25,99.25,0,0,0,.41-23.54,139.48,139.48,0,0,0-3.07-19.12H729.29s-.34,1.33-.8,3.63h85.72A20.8,20.8,0,0,1,835,632.6l0,.32a99.86,99.86,0,0,1-.41,23.55c-1.18,7.55-3.64,14.7-8.16,20-14.45,16.95-36.12,36-41.22,51.87a22.44,22.44,0,0,0-1.06,5.17c0,.45,0,.9,0,1.35a20.77,20.77,0,0,0,1,6.13c2.35,7.73,8.67,16.18,16.22,24.79,1.88,2.16,3.86,4.33,5.86,6.5,3.56,3.86,7.22,7.7,10.74,11.49,3,3.21,5.85,6.36,8.5,9.46a31.3,31.3,0,0,1,5,8.41c2.68,6.44,3.77,14,4,21.34a134.52,134.52,0,0,1-2.74,29.28h8A135.68,135.68,0,0,0,844.28,819.34Z" transform="translate(-178.59 -66.56)"/><path class="cls-18" d="M821.11,816.42c-24.77-3.48-30.79-18.31-31.49-32,0,0-1.4-46.93-.92-62.57.41-13.28,23.32-30,36-44.85a24.3,24.3,0,0,0,3.91-6.4,4.51,4.51,0,0,0-5.74-5.94c-11.6,4.17-32.82,9.59-47.2.26-12.18-7.9-23.07-9.83-30-10.08a6.69,6.69,0,0,0-6.81,7.94c1,5.38,2.93,10.4,6.21,14.22,12.73,14.81,36.53,31.65,37.54,44.91,0,0,1.93,46.92.74,62.51-.82,10.79-3.47,21-34,27.16-14.69,3-17.12,8.54-17.7,16.38a120.94,120.94,0,0,0,1.94,14.16,5.57,5.57,0,0,0,5.48,4.47h91.77a5.56,5.56,0,0,0,5.47-4.45,60.86,60.86,0,0,0,1.8-12.29C838.25,820.9,830.56,817.75,821.11,816.42Z" transform="translate(-178.59 -66.56)"/><path class="cls-19" d="M732.36,628.6c-1.69,6.62-1.13,12.47,1.25,13.08s5.67-4.27,7.36-10.88,1.13-12.48-1.25-13.08S734.05,622,732.36,628.6Z" transform="translate(-178.59 -66.56)"/><path class="cls-19" d="M747.86,780.44c-4.47,5.16-6.59,10.64-4.74,12.25s7-1.28,11.45-6.44,6.6-10.64,4.75-12.25S752.34,775.28,747.86,780.44Z" transform="translate(-178.59 -66.56)"/><path class="cls-19" d="M735.1,796.49c-1.06,1.22-1.4,2.67-.76,3.23s2,0,3.09-1.21,1.41-2.68.76-3.23S736.16,795.26,735.1,796.49Z" transform="translate(-178.59 -66.56)"/><rect class="cls-5" x="543.68" y="784.45" width="123.94" height="7.84" rx="2.39"/><rect class="cls-5" x="543.68" y="537.03" width="123.94" height="7.84" rx="2.39"/><path class="cls-20" d="M965.79,515.92s16-.64,24.84-8.64l-22.69-10Z" transform="translate(-178.59 -66.56)"/><path class="cls-21" d="M965.79,516.92a1,1,0,0,1,0-2c.16,0,15.7-.72,24.21-8.38a1,1,0,1,1,1.33,1.48c-9,8.15-24.79,8.87-25.46,8.9Z" transform="translate(-178.59 -66.56)"/><polygon class="cls-20" points="644.89 318.17 688.95 315.29 676.21 296.28 675.28 282.1 675.22 281.16 675.17 280.62 674.88 277.45 654.47 271.22 654.59 293.44 654.01 296.5 644.89 318.17"/><path class="cls-21" d="M832,310.81s10.06,7.89,7.79,9.2c-9.08,5.22,1.8,25.56,1.8,25.56-5.3,4.14-35.29-10.75-23.19-34Z" transform="translate(-178.59 -66.56)"/><path class="cls-20" d="M855.17,352.93c-10,3.69-17.83-6.24-18.19-6.66-4-4.75-6.76-13.52-6.86-19.61-.23-12.76,15.33-22.06,26.26-14.93a18,18,0,0,1,8.2,18.61l.06.47C864.69,333,864.72,349.44,855.17,352.93Z" transform="translate(-178.59 -66.56)"/><path class="cls-21" d="M839.8,327.33a6.66,6.66,0,0,1,3.14-2.06c1.87-.47,2.82.74,2.79,1.24s-1.64.28-3,1S839.79,328.33,839.8,327.33Z" transform="translate(-178.59 -66.56)"/><path class="cls-21" d="M861,326.74a6.58,6.58,0,0,0-3.24-1.88c-1.89-.37-2.77.89-2.72,1.38s1.66.2,3.09.83S861.06,327.75,861,326.74Z" transform="translate(-178.59 -66.56)"/><path class="cls-21" d="M845,331.94c0,1-.56,1.82-1.26,1.82s-1.28-.8-1.28-1.81.56-1.81,1.26-1.82S845,330.94,845,331.94Z" transform="translate(-178.59 -66.56)"/><path class="cls-21" d="M859,332c0,1-.56,1.82-1.27,1.82s-1.27-.8-1.28-1.8.56-1.82,1.27-1.83S859,331,859,332Z" transform="translate(-178.59 -66.56)"/><path class="cls-21" d="M852.72,347.14a7,7,0,0,1-1.44-.16c-4.09-.84-4.5-3.33-4.68-4.39l0-.12a1,1,0,1,1,2-.35l0,.14c.15.93.37,2.2,3.11,2.76,2.57.53,3.2-.93,3.26-1.1a1,1,0,0,1,1.89.65A4.14,4.14,0,0,1,852.72,347.14Z" transform="translate(-178.59 -66.56)"/><path class="cls-21" d="M853.69,340.62a3.21,3.21,0,0,1-1.2-.24,1,1,0,0,1-.57-1.29,1,1,0,0,1,1.3-.57.9.9,0,0,0,1.1-.19,6.9,6.9,0,0,0-.69-1.54,23.49,23.49,0,0,1-1.36-3.74,1,1,0,1,1,1.92-.54,22,22,0,0,0,1.21,3.34c.63,1.18,1.41,2.65.43,3.79A2.79,2.79,0,0,1,853.69,340.62Z" transform="translate(-178.59 -66.56)"/><path class="cls-21" d="M817.66,313.87l13,12.39c5.47,2.4,13-7.93,13-7.93s3.83,5.39,9.83,3.07a10.57,10.57,0,0,0,9,2.29s2.07,3.4,5.58,2.65c0,0,10.14-3.17,8.76-13.13-1.18-8.57-6.65-11.12-12.77-12.86-5.92-1.68-8.51.63-8.51.63s-2.12-5.76-8.06-5.05c-9.15,1.1-8.33,7.19-8.33,7.19a7.17,7.17,0,0,0-9.34-1.49,7.51,7.51,0,0,0-3.54,6.94,7.52,7.52,0,0,0-8.17,3.55C818,312.29,817.71,313.67,817.66,313.87Z" transform="translate(-178.59 -66.56)"/><path class="cls-20" d="M825.09,323c1.44-1.66,3.7-1,5.54-.05s2.61,2.46,2.21,3.92c-1,3.53,1.44,7.49,1.91,11.25C821.77,336.79,822.32,326.2,825.09,323Z" transform="translate(-178.59 -66.56)"/><path class="cls-21" d="M827,326a2.62,2.62,0,0,1,2.78.7c.2.33-.4.59-.67.27a1.06,1.06,0,0,0-1-.33,1.37,1.37,0,0,0-.8.54c-.5.66-.07,1.52.27,2.19a8.85,8.85,0,0,0,1.36,1.92c.58.64,1.4,1.14,2,1.76s-.54,1.35-1.33.93a5.86,5.86,0,0,1-1.49-1.24,10.76,10.76,0,0,1-1.07-1.29,7.88,7.88,0,0,1-1.39-2.93A2.06,2.06,0,0,1,827,326Z" transform="translate(-178.59 -66.56)"/><path class="cls-21" d="M851.25,354.38c-5.35,0-14.46-2.21-19.24-16a1,1,0,0,1,1.9-.65c6.34,18.35,20.38,14.43,21,14.26a1,1,0,0,1,.57,1.91A16.27,16.27,0,0,1,851.25,354.38Z" transform="translate(-178.59 -66.56)"/><path class="cls-21" d="M834,339.06a12.43,12.43,0,0,1-4.77-.69,1,1,0,0,1-.41-1.36,1,1,0,0,1,1.35-.41c.84.44,3.63.51,5.34.42a1,1,0,0,1,.11,2C835.33,339,834.73,339.06,834,339.06Z" transform="translate(-178.59 -66.56)"/><polygon class="cls-22" points="713.83 701.95 714.06 761.74 776.63 763.51 777.59 701.71 713.83 701.95"/><path class="cls-23" d="M1057,858.73h-168c-4.74-47.64,2.09-67.2,2.09-67.2s1.43,14.56,31.7,13.9c31.23.36,33.09-20.6,33.09-20.6a202.1,202.1,0,0,0,26.61,22.38h0c15.63,11,34.72,22.09,48.74,22.43,19,.46,24,12.29,25.32,20.05A53.15,53.15,0,0,1,1057,858.73Z" transform="translate(-178.59 -66.56)"/><polygon class="cls-20" points="754.53 761.48 742.81 707.79 668.35 713.69 675.86 770.86 754.53 761.48"/><path class="cls-5" d="M860.79,890.44l95.39-.28s14.16-26-15.88-48.67l-8.81-20.93-78.18,8.2,3,28.94Z" transform="translate(-178.59 -66.56)"/><path class="cls-24" d="M938.64,614.27c-9.64-.6-38,7.23-43.84,34-6,22-5.57,51.54-15.59,134.89L958,779.51s22.82-105.73,19.4-136.15C976,630.69,967.24,616,938.64,614.27Z" transform="translate(-178.59 -66.56)"/><path class="cls-24" d="M870.37,526.25s32.19,31.8,60.34,55.37c28.37,23.76,39.46,42.21,39.46,42.21s6.39,10.68,7.25,19.53c.31,21-25.32,33.81-50.9,25.62,0,0-20.11-4.21-54.52-28.3-37.64-26.34-81-104.6-81-104.6Z" transform="translate(-178.59 -66.56)"/><path class="cls-25" d="M783.36,529.3l60.2-3.07s20.26,27.73,39.79,75.53c8.81,21.54,19.26,78,19.26,78,0,13.78-4.18,22.81-34.16,28.24-23,4.17-46-17.81-51.17-33.25,0,0-33.49-61.83-38.84-82.81C771.48,564.69,783.36,529.3,783.36,529.3Z" transform="translate(-178.59 -66.56)"/><path class="cls-21" d="M902.61,680.77a1,1,0,0,1-1-.82c-.1-.56-10.54-56.62-19.2-77.82-4.35-10.28-7.82-18-7.86-18.1a1,1,0,0,1,1.83-.82c0,.08,3.52,7.84,7.88,18.16,8.74,21.4,19.21,77.65,19.32,78.22a1,1,0,0,1-.8,1.17Z" transform="translate(-178.59 -66.56)"/><path class="cls-25" d="M851.56,636.11c9.58-1.26,38.65,4.61,47.13,31,8.12,21.68,10.57,51.3,28.67,134.18l-79.15,1.86s-31.38-97.62-30.93-128.44C817.47,661.93,823.13,639.87,851.56,636.11Z" transform="translate(-178.59 -66.56)"/><path class="cls-21" d="M927.36,802.34a1,1,0,0,1-1-.78c-8.77-40.19-13.27-66.41-16.55-85.56-3.54-20.67-5.68-33.14-10.27-46.76a1,1,0,1,1,1.89-.64c4.64,13.77,6.79,26.3,10.35,47.06,3.28,19.13,7.77,45.33,16.54,85.47a1,1,0,0,1-.77,1.19A.75.75,0,0,1,927.36,802.34Z" transform="translate(-178.59 -66.56)"/><path class="cls-24" d="M954.14,494.83c.22,12.5-10.4,22.74-23.74,22.81a24.54,24.54,0,0,1-21.13-11.46h0l-.13-.21a2,2,0,0,1-.11-.2c-3-4.94-34.48-51.4-44.74-85.29v0h0c-5.15-17-9.13-36,10.38-42.29,41.22-13.32,77.53,94.95,79.32,114.33v0C954.07,493.29,954.12,494.06,954.14,494.83Z" transform="translate(-178.59 -66.56)"/><path class="cls-24" d="M890.78,395.49c-.36,29.23-4.93,64.49-6.75,92.95-1.63,17.16,8.55,49.36.2,51.2,0,0-9.75,2-42.91,1s-66.61-2.31-66.61-2.31c-13-2.06,2-22.13,4.81-34.89,17.75-48.26,9.93-106.08,4.6-123.08,10.3-6.07,49.07-20.4,49.07-20.4-3.13,20.31,34.67,30.39,21.62,2.84,8.75,4.82,34.33,15.35,34.33,15.35C890.3,382,890.77,388.1,890.78,395.49Z" transform="translate(-178.59 -66.56)"/><path class="cls-21" d="M884,489.44h-.09a1,1,0,0,1-.91-1.08c.53-6.29,1-11.94,1.32-16.8.47-6.54,1.17-14.27,1.92-22.46,1.65-18.09,3.53-38.59,3.51-53.59a1,1,0,0,1,1-1h0a1,1,0,0,1,1,1c0,15.1-1.86,35.64-3.52,53.77-.74,8.18-1.45,15.9-1.92,22.42-.34,4.87-.79,10.53-1.32,16.83A1,1,0,0,1,884,489.44Z" transform="translate(-178.59 -66.56)"/><path class="cls-24" d="M815.41,406.05a99.64,99.64,0,0,1-3.66,14.39h0c-5.69,17.82-17.31,39.11-27.48,56-9.18,15.21-17.2,26.86-18.64,29.2l-.12.21-.14.19a25,25,0,0,1-21.29,11.41c-13.32-.09-23.74-10.34-23.31-22.84,0-.77.1-1.53.2-2.27v0h0c2.11-19.35,39-125.3,80.25-113C810.49,382.08,817.29,394.26,815.41,406.05Z" transform="translate(-178.59 -66.56)"/><path class="cls-21" d="M784.25,477.45a1,1,0,0,1-.52-.15,1,1,0,0,1-.34-1.37c13.52-22.42,22.73-41.19,27.39-55.77h0l0-.08a99.89,99.89,0,0,0,3.61-14.18,1,1,0,0,1,2,.31,103.33,103.33,0,0,1-3.69,14.5.5.5,0,0,1-.05.13c-4.71,14.72-14,33.6-27.55,56.12A1,1,0,0,1,784.25,477.45Zm27.5-57Z" transform="translate(-178.59 -66.56)"/><path class="cls-26" d="M884.07,436.44s10.41-10.18,13-11.2,43.95,7.44,70.52,23.37c0,0,8.72-12.39,41.07-23.59l16.87,10.14L966.6,465.27Z" transform="translate(-178.59 -66.56)"/><path class="cls-6" d="M881.17,433,835,517l74.55,16.17,20.09.73s16.67-.72,45.86-14.88l54.39-86.23s-4.85-3.09-53.61,22.38l-18.42-1.8S915.69,440.06,881.17,433Z" transform="translate(-178.59 -66.56)"/><polygon class="cls-27" points="779.22 386.78 730.92 466.58 751 467.32 797.64 388.58 779.22 386.78"/><path class="cls-20" d="M924.48,484.26c-.13,2.94-9.46,11.36-22.63,18.54a.42.42,0,0,1-.14.06,98.8,98.8,0,0,1-25.31,9.8c-25,5.6-74,5.16-74,5.16L807.83,488a116.1,116.1,0,0,0,23.54-14h0c1-.79,2-1.6,2.9-2.44,11.13-9.9,29.69-25.83,36.62-20.78s-9.26,13.41-6.83,17.78,13.31,2,23.17-1.67,18.9-9.64,22.62-8.37a5.46,5.46,0,0,1,3.83,4.31v.05a5.31,5.31,0,0,1-1,3.82c.09,0,.45-.1,1-.18,1.91-.29,5.54-1.16,7.39.82a7.4,7.4,0,0,1,.58.88l-.14-.24c1.17,2-.11,4.62-.44,5.14a.24.24,0,0,0-.07.11,4.26,4.26,0,0,1,2.79,2.15,2.65,2.65,0,0,1-.2,2.58,9.45,9.45,0,0,1-2,2.59,2.09,2.09,0,0,1,2.13.78A4.72,4.72,0,0,1,924.48,484.26Z" transform="translate(-178.59 -66.56)"/><path class="cls-21" d="M804.6,518.83h-2.2a1,1,0,0,1-1-1,1,1,0,0,1,1-1h0c.49,0,49.13.38,73.77-5.14a97.67,97.67,0,0,0,25.05-9.7l.15-.06c14.15-7.72,22-15.74,22.1-17.7a3.73,3.73,0,0,0-.43-2.37,1.09,1.09,0,0,0-1.1-.42,1,1,0,0,1-.91-1.71,8.35,8.35,0,0,0,1.72-2.26c.43-.85.48-1.23.23-1.71a3.31,3.31,0,0,0-2.08-1.63,1,1,0,0,1-.66-.44,1,1,0,0,1-.13-.78,1.25,1.25,0,0,1,.23-.46c.34-.6,1.2-2.64.4-4-.16-.26-.27-.43-.32-.49-1.3-1.38-4-.92-5.88-.62l-.63.11c-.42.05-.7.11-.86.14a.8.8,0,0,1-.21,0,1,1,0,0,1-1-.47,1,1,0,0,1,0-1.09,4.35,4.35,0,0,0,.8-3.12s0-.06,0-.1a4.51,4.51,0,0,0-3.15-3.45c-2-.68-6.75,1.56-11.77,3.92-3.1,1.46-6.61,3.12-10.18,4.45-7.79,2.92-21.32,6.95-24.4,1.2-1.38-2.48,1.21-5.32,4-8.33,2.2-2.41,4.69-5.14,4.48-7.15a2.81,2.81,0,0,0-1.32-2c-6.63-4.84-27.5,13.73-35.36,20.72a1,1,0,0,1-1.33-1.5c14.8-13.16,30.87-25.94,37.87-20.84a4.79,4.79,0,0,1,2.13,3.38c.3,2.9-2.39,5.84-5,8.69-2,2.25-4.38,4.8-3.69,6,1.69,3.14,10.1,2.33,21.95-2.11,3.49-1.31,7-2.94,10-4.38,5.88-2.77,10.52-4.95,13.27-4a6.44,6.44,0,0,1,4.5,5.11.76.76,0,0,1,0,.15,5.74,5.74,0,0,1-.22,2.56c2.13-.36,5.47-.82,7.42,1.27a5,5,0,0,1,.55.78v0l0,0a.75.75,0,0,1,.07.12h0l.05.08a1.3,1.3,0,0,1,.1.25,6.18,6.18,0,0,1-.22,4.73,5.06,5.06,0,0,1,2.29,2.25,3.58,3.58,0,0,1-.2,3.48,7,7,0,0,1-.9,1.46,3,3,0,0,1,1,.86,5.59,5.59,0,0,1,.82,3.66c-.15,3.75-10.75,12.62-23.14,19.38l-.21.1a100,100,0,0,1-25.5,9.85C854.79,518.52,814.45,518.83,804.6,518.83Zm117.25-45.07Z" transform="translate(-178.59 -66.56)"/><path class="cls-21" d="M886.59,480.46a1,1,0,0,1-.24-2,75,75,0,0,0,25.73-12.65,1,1,0,0,1,1.26,1.56,75.7,75.7,0,0,1-26.51,13Z" transform="translate(-178.59 -66.56)"/><path class="cls-21" d="M891.15,489.22a1,1,0,0,1-.35-1.93,144.55,144.55,0,0,0,29.78-15.07,1,1,0,0,1,1.39.24,1,1,0,0,1-.23,1.39,146.4,146.4,0,0,1-30.23,15.31A1.13,1.13,0,0,1,891.15,489.22Z" transform="translate(-178.59 -66.56)"/><path class="cls-21" d="M898,495.07a1,1,0,0,1-.36-1.93c16.11-6.35,23.31-13.32,23.38-13.39a1,1,0,1,1,1.41,1.43c-.31.29-7.57,7.32-24.06,13.82A.94.94,0,0,1,898,495.07Z" transform="translate(-178.59 -66.56)"/><path class="cls-24" d="M820.18,478.67l.9,9.28,3.14,32.34s-59.41,2.34-83.53-.85a23,23,0,0,1-3-.33,20.84,20.84,0,0,1-5.25-1.79,13.56,13.56,0,0,1-5.87-4.37v0c-4-4.37-4.87-10.3-4.29-16.54,2.18-23.35,33.63-22.8,50.13-22.21h0l4,.14C803.28,475.09,820.18,478.67,820.18,478.67Z" transform="translate(-178.59 -66.56)"/><path class="cls-21" d="M781.2,522.11c-15.17,0-30.85-.39-40.64-1.68a1,1,0,0,1,.26-2c23.76,3.15,82.77.88,83.36.85a1,1,0,0,1,1,1,1,1,0,0,1-1,1C823.91,521.3,803.1,522.11,781.2,522.11Z" transform="translate(-178.59 -66.56)"/><path class="cls-21" d="M824.22,521.29a1,1,0,0,1-1-.9l-4-41.62a1,1,0,1,1,2-.2l4,41.63a1,1,0,0,1-.9,1.09Z" transform="translate(-178.59 -66.56)"/><path class="cls-21" d="M820.18,479.67l-.21,0c-.16,0-17.14-3.57-43.46-4.33l-4-.14a1,1,0,0,1-1-1,1.05,1.05,0,0,1,1-1l4,.14c26.52.77,43.65,4.33,43.82,4.37a1,1,0,0,1-.21,2Z" transform="translate(-178.59 -66.56)"/><path class="cls-20" d="M1019.76,469.36c-1.08,1.63-3,2.95-6.26,3.42a7.15,7.15,0,0,1,.91,1.38h0c3.2,6.31-.5,13-8.44,12.15,2.85,7.63-2.32,11.71-8.65,11.7.22,1.53-.74,8.79-3.66,10-5.5,1.84-26.79-6.57-28.84-13.36h0c-.29-2.38,1-5.25,3.82-5a11.7,11.7,0,0,1,2.34.24c-3.94-3.8-2.08-11.12,4.92-9.7-5.81-13.1,9.93-9.68,17.09-10-7.79-1.49-4.3-11.55,1-11.26,0,0,14.16-.64,20.67-.15C1019.57,459.12,1023.21,463,1019.76,469.36Z" transform="translate(-178.59 -66.56)"/><path class="cls-21" d="M991.72,509.25c-4.52,0-12-2.5-17.68-5.45-3.25-1.68-8.83-5-10.1-8.68a1.09,1.09,0,0,1-.12-.36,6.08,6.08,0,0,1,1.47-4.87,4.08,4.08,0,0,1,3.39-1.24h.14a7.09,7.09,0,0,1-.15-6.52,6,6,0,0,1,5.69-3.12c-1-2.92-1-5.18.19-6.87,2.37-3.49,8.57-3.23,14-3h.28a6,6,0,0,1-1.36-4.8c.39-3.21,3-6.54,6.51-6.39,1.06,0,14.37-.63,20.75-.14a7.77,7.77,0,0,1,6.56,3.67c.88,1.59,1.48,4.34-.68,8.36a8.84,8.84,0,0,1-5.47,3.63l0,.06a.57.57,0,0,1,.12.18c1.77,3.48,1.68,7.23-.25,10a9,9,0,0,1-7.69,3.68c1,3.66,0,6.13-1,7.61-1.63,2.34-4.52,3.76-8,4-.12,2.71-1.18,8.67-4.29,9.95l-.06,0A7.29,7.29,0,0,1,991.72,509.25Zm2-1.25h0Zm-27.89-13.67v0c.66,2.18,4.08,5,9.16,7.68,7.09,3.66,15.49,6,18.37,5,2.24-1,3.22-7.5,3-8.91a1,1,0,0,1,1-1.14h0c3.24,0,6-1.18,7.37-3.15s1.38-4.32.3-7.2a1,1,0,0,1,.15-1,1,1,0,0,1,.9-.38c3.2.36,5.87-.64,7.33-2.75a7.67,7.67,0,0,0,.19-7.8l-.1-.15a5.17,5.17,0,0,0-.76-1.16,1,1,0,0,1-.2-1,1,1,0,0,1,.8-.66c2.63-.38,4.51-1.38,5.57-3,1.32-2.47,1.56-4.7.64-6.36a5.86,5.86,0,0,0-5-2.65c-6.39-.48-20.43.15-20.57.15H994c-2.28-.13-4.18,2.29-4.47,4.64-.14,1.15-.06,3.91,3.7,4.63a1,1,0,0,1-.14,2c-1.32.06-2.88,0-4.54-.08-4.7-.19-10.55-.43-12.3,2.14-.91,1.34-.71,3.53.62,6.51a1,1,0,0,1-1.12,1.39c-2.44-.5-4.36.19-5.26,1.89a5.31,5.31,0,0,0,1.23,6.11h0a.69.69,0,0,1,.19.23,1,1,0,0,1-.26,1.27,1,1,0,0,1-.85.18,12.34,12.34,0,0,0-2.08-.2h-.1a2.19,2.19,0,0,0-1.83.64A4.08,4.08,0,0,0,965.79,494.33Z" transform="translate(-178.59 -66.56)"/><path class="cls-21" d="M1013.46,473.78c-1.91,0-13.59-1.6-20.6-2.58a1,1,0,0,1-.86-1.13,1,1,0,0,1,1.13-.86c7.28,1,19.24,2.6,20.26,2.58a1,1,0,0,1,1.13.81,1,1,0,0,1-.85,1.17Z" transform="translate(-178.59 -66.56)"/><path class="cls-21" d="M1006,487.31a.65.65,0,0,1-.2,0l-30.09-6.13a1,1,0,0,1,.4-2l30.09,6.13a1,1,0,0,1-.2,2Z" transform="translate(-178.59 -66.56)"/><path class="cls-21" d="M997.34,499a1,1,0,0,1-.3-.05l-26.36-8.12a1,1,0,0,1-.66-1.26,1,1,0,0,1,1.25-.66l26.36,8.13a1,1,0,0,1-.29,2Z" transform="translate(-178.59 -66.56)"/></svg>