<?xml version="1.0" encoding="utf-8"?>
<!-- Generator: Adobe Illustrator 23.0.5, SVG Export Plug-In . SVG Version: 6.00 Build 0)  -->
<svg version="1.1" id="Layer_1" xmlns="http://www.w3.org/2000/svg" xmlns:xlink="http://www.w3.org/1999/xlink" x="0px" y="0px"
	 viewBox="0 0 512 512" style="enable-background:new 0 0 512 512;" xml:space="preserve">
<style type="text/css">
	.st0{fill:#1F517F;}
	.st1{fill:#FACC15;}
</style>
<path class="st0" d="M4.1,38.2C1.4,34.2,0,29.4,0,24.6C0,11,11,0,24.6,0h109.3c11.2,0,21.7,5.9,27.4,15.5l68.5,114.1
	c-48.2,6.1-91.3,28.6-123.4,61.9L4.1,38.2z"/>
<path class="st0" d="M507.8,38.2L405.6,191.5c-32.1-33.3-75.2-55.8-123.4-61.9l68.5-114.1C356.5,5.9,366.9,0,378.1,0h109.3
	C501,0,512,11,512,24.6C512,29.4,510.6,34.2,507.8,38.2L507.8,38.2z"/>
<path class="st1" d="M256,160c-97.2,0-176,78.8-176,176s78.8,176,176,176s176-78.8,176-176S353.2,160,256,160z M349.1,314.9
	l-36.3,35.4c-2.2,2.2-3.2,5.3-2.7,8.3l8.6,49.9c1.3,7.7-6.7,13.5-13.6,9.9l-44.8-23.6c-2.7-1.4-6-1.4-8.7,0l-44.8,23.6
	c-6.9,3.6-14.9-2.3-13.6-9.9l8.6-49.9c0.5-3.1-0.5-6.1-2.7-8.3l-36.3-35.4c-5.5-5.5-2.5-14.9,5.2-16l50.2-7.3c3-0.4,5.6-2.3,7-5.1
	l22.4-45.4c3.5-7,13.4-7,16.8,0l22.4,45.4c1.3,2.7,4,4.7,7,5.1l50.1,7.3C351.6,300.1,354.7,309.5,349.1,314.9z"/>
</svg>
