<svg id="Layer_1" data-name="Layer 1" xmlns="http://www.w3.org/2000/svg" viewBox="0 0 1053.91 828.81"><defs><style>.cls-1{fill:#e8e8e8;}.cls-2{fill:#292e30;}.cls-3{fill:#c8cbcc;}.cls-4{fill:#fff;}.cls-5{fill:#16171e;}.cls-6{fill:#e15843;}.cls-7{fill:#ffb829;}.cls-8{fill:#ffa293;}.cls-9{fill:#4366b1;}.cls-10{fill:#323536;}.cls-11{fill:#0b0e0f;}.cls-12{fill:#3674b5;}.cls-13{fill:#3e6b48;}.cls-14{fill:#fda202;}.cls-15{fill:#22427a;}.cls-16{fill:#7194d3;}</style></defs><title>registration</title><path class="cls-1" d="M246.68,229.74a34.54,34.54,0,1,0,48,9.12A34.55,34.55,0,0,0,246.68,229.74Zm24.47,35.94a8.94,8.94,0,1,1,2.35-12.41A8.92,8.92,0,0,1,271.15,265.68Z" transform="translate(-155.04 -65.6)"/><path class="cls-1" d="M339.34,189.28l-21.48,6.36h0a80.39,80.39,0,0,0-15-9.79L300,163.51a8.85,8.85,0,0,0-7.11-7.53l-14.34-2.72a8.83,8.83,0,0,0-9.42,4.46l-10.7,19.71h0a80.43,80.43,0,0,0-17.48,3.63h0L223,167.34a8.83,8.83,0,0,0-10.35-.29l-12.07,8.21a8.84,8.84,0,0,0-3.5,9.82l6.37,21.5h0a78.79,78.79,0,0,0-9.79,14.92h0l-22.34,3a8.82,8.82,0,0,0-7.53,7.11l-2.72,14.34a8.82,8.82,0,0,0,4.46,9.41L185.22,266a80.74,80.74,0,0,0,3.65,17.51l-13.71,17.87a8.85,8.85,0,0,0-.29,10.36l8.21,12.06a8.84,8.84,0,0,0,9.82,3.5L214.37,321h0a80.72,80.72,0,0,0,15,9.79l2.95,22.34a8.81,8.81,0,0,0,7.11,7.52l14.34,2.73a8.84,8.84,0,0,0,9.41-4.47l10.7-19.7a79.08,79.08,0,0,0,17.47-3.64h0l17.89,13.73a8.85,8.85,0,0,0,10.35.3l12.07-8.22a8.83,8.83,0,0,0,3.5-9.81L328.77,310h0a80.28,80.28,0,0,0,9.78-14.93v0l22.34-2.94a8.84,8.84,0,0,0,7.53-7.11l2.73-14.34a8.85,8.85,0,0,0-4.47-9.42L347,250.58a80.65,80.65,0,0,0-3.65-17.5l13.71-17.88a8.83,8.83,0,0,0,.29-10.35l-8.21-12.07A8.84,8.84,0,0,0,339.34,189.28Zm-40.52,117a58.1,58.1,0,1,1,15.32-80.71A58.1,58.1,0,0,1,298.82,306.32Z" transform="translate(-155.04 -65.6)"/><path class="cls-1" d="M211.36,449.18a21,21,0,1,0,29.14,5.54A21,21,0,0,0,211.36,449.18ZM226.21,471a5.42,5.42,0,1,1,1.43-7.53A5.42,5.42,0,0,1,226.21,471Z" transform="translate(-155.04 -65.6)"/><path class="cls-1" d="M267.61,424.62l-13,3.86h0a49.64,49.64,0,0,0-9.08-6L243.7,409a5.35,5.35,0,0,0-4.31-4.57l-8.71-1.66a5.38,5.38,0,0,0-5.72,2.71l-6.49,12h0a48.27,48.27,0,0,0-10.61,2.2h0L197,411.3a5.38,5.38,0,0,0-6.29-.18l-7.32,5a5.37,5.37,0,0,0-2.13,6l3.87,13.05h0a47.35,47.35,0,0,0-5.95,9.06h0L165.62,446a5.37,5.37,0,0,0-4.57,4.32L159.39,459a5.36,5.36,0,0,0,2.71,5.71l12,6.49a48.6,48.6,0,0,0,2.22,10.63l-8.33,10.85a5.36,5.36,0,0,0-.18,6.28l5,7.33a5.35,5.35,0,0,0,6,2.12l13-3.86h0a48.74,48.74,0,0,0,9.08,5.94l1.78,13.56a5.37,5.37,0,0,0,4.32,4.57l8.71,1.65a5.35,5.35,0,0,0,5.71-2.71l6.5-12a48.06,48.06,0,0,0,10.6-2.2h0l10.86,8.33a5.38,5.38,0,0,0,6.29.18l7.32-5a5.38,5.38,0,0,0,2.13-6l-3.87-13h0a48.92,48.92,0,0,0,5.94-9.06h0l13.56-1.79a5.35,5.35,0,0,0,4.57-4.32l1.66-8.7a5.38,5.38,0,0,0-2.72-5.72l-11.94-6.48a48.94,48.94,0,0,0-2.22-10.63l8.32-10.85a5.36,5.36,0,0,0,.18-6.29l-5-7.32A5.37,5.37,0,0,0,267.61,424.62ZM243,495.67a35.27,35.27,0,1,1,9.3-49A35.27,35.27,0,0,1,243,495.67Z" transform="translate(-155.04 -65.6)"/><path class="cls-1" d="M1132.56,552.07a18,18,0,1,0,25,4.76A18,18,0,0,0,1132.56,552.07Zm12.76,18.75a4.66,4.66,0,1,1,1.23-6.48A4.66,4.66,0,0,1,1145.32,570.82Z" transform="translate(-155.04 -65.6)"/><path class="cls-1" d="M1180.89,531l-11.2,3.31h0a42.24,42.24,0,0,0-7.8-5.11l-1.53-11.65a4.63,4.63,0,0,0-3.71-3.93l-7.48-1.42a4.61,4.61,0,0,0-4.91,2.33l-5.59,10.28h0a41.22,41.22,0,0,0-9.12,1.89h0l-9.33-7.16a4.61,4.61,0,0,0-5.4-.15l-6.29,4.28a4.61,4.61,0,0,0-1.83,5.12L1110,540h0a41.37,41.37,0,0,0-5.1,7.78h0l-11.65,1.53a4.62,4.62,0,0,0-3.93,3.71l-1.42,7.49a4.63,4.63,0,0,0,2.33,4.91L1100.5,571a42.12,42.12,0,0,0,1.9,9.14l-7.15,9.32a4.61,4.61,0,0,0-.15,5.4l4.28,6.29a4.61,4.61,0,0,0,5.12,1.83l11.2-3.32h0a41.64,41.64,0,0,0,7.81,5.11l1.53,11.65a4.61,4.61,0,0,0,3.71,3.93l7.48,1.42a4.6,4.6,0,0,0,4.91-2.33l5.58-10.27a41.61,41.61,0,0,0,9.11-1.9h0l9.34,7.16a4.61,4.61,0,0,0,5.4.16l6.29-4.29a4.61,4.61,0,0,0,1.83-5.12l-3.32-11.2h0a41,41,0,0,0,5.1-7.79h0l11.65-1.54a4.62,4.62,0,0,0,3.93-3.71l1.42-7.48a4.61,4.61,0,0,0-2.33-4.91l-10.27-5.58a42,42,0,0,0-1.9-9.13l7.15-9.32a4.61,4.61,0,0,0,.15-5.4l-4.28-6.3A4.6,4.6,0,0,0,1180.89,531Zm-21.14,61a30.31,30.31,0,1,1,8-42.1A30.3,30.3,0,0,1,1159.75,592Z" transform="translate(-155.04 -65.6)"/><path class="cls-1" d="M1096.51,334.14a30.51,30.51,0,1,0,42.89,4.79A30.5,30.5,0,0,0,1096.51,334.14Zm24,30a7.89,7.89,0,1,1,1.23-11.09A7.89,7.89,0,0,1,1120.49,364.14Z" transform="translate(-155.04 -65.6)"/><path class="cls-1" d="M1175.39,292.25l-18.49,7.05h0a70.87,70.87,0,0,0-13.84-7.62L1139,272.2a7.81,7.81,0,0,0-6.77-6.15l-12.81-1.43a7.8,7.8,0,0,0-8,4.57l-8.1,18.08h0a70.55,70.55,0,0,0-15.15,4.37h0l-16.67-10.87a7.8,7.8,0,0,0-9.14.44l-10.07,8a7.8,7.8,0,0,0-2.42,8.88l7.06,18.5h0a69.77,69.77,0,0,0-7.62,13.8h0l-19.48,4.1a7.79,7.79,0,0,0-6.15,6.77l-1.43,12.82a7.8,7.8,0,0,0,4.57,8l18,8.08a70.89,70.89,0,0,0,4.4,15.18l-10.87,16.66a7.82,7.82,0,0,0,.44,9.14l8,10.07a7.79,7.79,0,0,0,8.88,2.42l18.48-7.05h0a70.47,70.47,0,0,0,13.83,7.61l4.1,19.47a7.81,7.81,0,0,0,6.77,6.15l12.82,1.44a7.82,7.82,0,0,0,8-4.57l8.09-18.08A69.77,69.77,0,0,0,1143,424.3h0l16.69,10.88a7.78,7.78,0,0,0,9.13-.44l10.08-8.05a7.8,7.8,0,0,0,2.42-8.88l-7.06-18.49h0a70.11,70.11,0,0,0,7.6-13.82h0l19.48-4.1a7.81,7.81,0,0,0,6.15-6.77l1.43-12.82a7.8,7.8,0,0,0-4.57-8l-18.06-8.08a71.19,71.19,0,0,0-4.39-15.17l10.87-16.67a7.81,7.81,0,0,0-.44-9.14l-8-10.07A7.79,7.79,0,0,0,1175.39,292.25ZM1147.6,398.06a51.32,51.32,0,1,1,8-72.12A51.32,51.32,0,0,1,1147.6,398.06Z" transform="translate(-155.04 -65.6)"/><path class="cls-2" d="M1082.1,886.9h0a2.86,2.86,0,0,1-2.73-2l-68.76-226.43h6l68.26,224.77A2.85,2.85,0,0,1,1082.1,886.9Z" transform="translate(-155.04 -65.6)"/><path class="cls-2" d="M1021.1,886.9h0a2.86,2.86,0,0,0,2.73-2l68.76-226.43h-6l-68.26,224.77A2.85,2.85,0,0,0,1021.1,886.9Z" transform="translate(-155.04 -65.6)"/><path class="cls-2" d="M1119.58,663.25h-136c-3.57,0-6.46-5.6-6.46-12.51h0c0-6.91,2.89-12.51,6.46-12.51h136c3.56,0,6.46,5.6,6.46,12.51h0C1126,657.65,1123.14,663.25,1119.58,663.25Z" transform="translate(-155.04 -65.6)"/><rect class="cls-2" x="861.74" y="605.15" width="69.63" height="4.49"/><path class="cls-2" d="M1114.49,888.72H988.71a2.55,2.55,0,0,1-2.55-2.55h0a2.55,2.55,0,0,1,2.55-2.55h125.78a2.56,2.56,0,0,1,2.55,2.55h0A2.55,2.55,0,0,1,1114.49,888.72Z" transform="translate(-155.04 -65.6)"/><path class="cls-3" d="M762.92,230.73l-413.15-.61c-16.79,0-30.42,13.29-30.45,29.74l-.9,604.05c0,16.45,13.57,29.81,30.37,29.83l413.15.62c16.79,0,30.42-13.29,30.45-29.75l.9-604C793.31,244.12,779.72,230.76,762.92,230.73Z" transform="translate(-155.04 -65.6)"/><path class="cls-4" d="M793.27,270.3,792.56,749V759.6l0,9-.11,80.46c0,10.36-9.87,18.8-22,18.8l-92.8-.14-25,0h-3.34l-308.92-.47c-12.12,0-22-8.48-21.94-18.86l.85-578.76c0-10.37,9.87-18.81,22-18.81l430.08.64a23.64,23.64,0,0,1,15.89,5.89A17.41,17.41,0,0,1,793.27,270.3Z" transform="translate(-155.04 -65.6)"/><path class="cls-5" d="M770.46,868.87l-121.15-.18-308.92-.47a24.73,24.73,0,0,1-16.17-5.79,18.39,18.39,0,0,1-6.77-14.08l.85-578.76c0-10.92,10.32-19.8,23-19.8l430.08.64a24.62,24.62,0,0,1,16.56,6.15,18.38,18.38,0,0,1,6.37,13.72L793.56,749l-.14,100.05C793.4,860,783.1,868.87,770.46,868.87ZM341.26,251.79c-11.54,0-20.94,8-21,17.81l-.85,578.76a16.47,16.47,0,0,0,6.07,12.56,22.81,22.81,0,0,0,14.87,5.3l308.93.47,28.34,0,92.8.14c11.54,0,20.94-8,21-17.81l.14-100,.71-478.72h0a16.39,16.39,0,0,0-5.71-12.22,22.59,22.59,0,0,0-15.22-5.64Z" transform="translate(-155.04 -65.6)"/><path class="cls-6" d="M658.75,227.13l-.06,38.3c0,7.14-5.42,12.92-12.08,12.91l-185.08-.27c-6.66,0-12-5.81-12-12.95l.06-38.3h-6.18l-.06,39.53c0,10.12,7.63,18.34,17.07,18.36l187.36.28c9.45,0,17.12-8.19,17.13-18.31l.06-39.53Z" transform="translate(-155.04 -65.6)"/><path class="cls-7" d="M554.21,188h0c-9.35,0-16.93,8.09-17,18.11l0,31.79,33.84,0,.05-31.79C571.11,196.11,563.55,188,554.21,188Zm0,25a7.62,7.62,0,1,1,7.11-7.59A7.35,7.35,0,0,1,554.17,212.93Z" transform="translate(-155.04 -65.6)"/><path class="cls-7" d="M664.49,238.06l-220.71-.33c-4.69,0-8.49-4.08-8.48-9.11h0c0-5,3.81-9.1,8.5-9.09l220.72.33c4.69,0,8.48,4.09,8.47,9.11h0C673,234,669.18,238.07,664.49,238.06Z" transform="translate(-155.04 -65.6)"/><rect class="cls-7" x="526.05" y="274.05" width="60.39" height="13.26" rx="0.69" transform="translate(-154.62 -66.43) rotate(0.09)"/><path class="cls-5" d="M739.63,350.7h0l-279-.42a1,1,0,0,1,0-2h0l279,.42a1,1,0,0,1,0,2Z" transform="translate(-155.04 -65.6)"/><path class="cls-5" d="M577,371.83h0l-116.43-.18a1,1,0,0,1,0-2h0l116.44.18a1,1,0,0,1,0,2Z" transform="translate(-155.04 -65.6)"/><path class="cls-5" d="M628.83,371.91h0l-38.74-.06a1,1,0,0,1,0-2h0l38.75.06a1,1,0,0,1,1,1A1,1,0,0,1,628.83,371.91Z" transform="translate(-155.04 -65.6)"/><path class="cls-5" d="M659.47,394.7h0l-198.91-.3a1,1,0,0,1,0-2h0l198.91.3a1,1,0,0,1,0,2Z" transform="translate(-155.04 -65.6)"/><path class="cls-5" d="M739.48,454.63h0l-279-.41a1,1,0,0,1,0-2h0l279,.41a1,1,0,0,1,0,2Z" transform="translate(-155.04 -65.6)"/><path class="cls-5" d="M576.88,475.76h0l-116.44-.17a1,1,0,0,1,0-2h0l116.44.17a1,1,0,0,1,0,2Z" transform="translate(-155.04 -65.6)"/><path class="cls-5" d="M628.68,475.84h0l-38.74-.06a1,1,0,0,1,0-2h0l38.74.06a1,1,0,0,1,0,2Z" transform="translate(-155.04 -65.6)"/><path class="cls-5" d="M659.32,498.63h0l-198.91-.29a1,1,0,0,1-1-1,1,1,0,0,1,1-1h0l198.91.29a1,1,0,0,1,0,2Z" transform="translate(-155.04 -65.6)"/><path class="cls-5" d="M739.32,558.57h0l-279-.42a1,1,0,0,1,0-2h0l279,.42a1,1,0,0,1,1,1A1,1,0,0,1,739.32,558.57Z" transform="translate(-155.04 -65.6)"/><path class="cls-5" d="M576.73,579.7h0l-116.44-.18a1,1,0,1,1,0-2h0l116.44.18a1,1,0,0,1,0,2Z" transform="translate(-155.04 -65.6)"/><path class="cls-5" d="M628.52,579.77h0l-38.74-.06a1,1,0,0,1,0-2h0l38.74.06a1,1,0,0,1,0,2Z" transform="translate(-155.04 -65.6)"/><path class="cls-5" d="M659.17,602.57h0l-198.91-.3a1,1,0,0,1-1-1,1,1,0,0,1,1-1l198.91.3a1,1,0,0,1,0,2Z" transform="translate(-155.04 -65.6)"/><path class="cls-5" d="M739.17,662.5h0l-279-.42a1,1,0,1,1,0-2h0l279,.42a1,1,0,1,1,0,2Z" transform="translate(-155.04 -65.6)"/><path class="cls-5" d="M576.57,683.63h0l-116.44-.18a1,1,0,0,1-1-1,1,1,0,0,1,1-1h0l116.43.18a1,1,0,0,1,0,2Z" transform="translate(-155.04 -65.6)"/><path class="cls-5" d="M628.37,683.71h0l-38.74-.06a1,1,0,0,1,0-2h0l38.74.06a1,1,0,0,1,0,2Z" transform="translate(-155.04 -65.6)"/><path class="cls-5" d="M659,706.5h0l-198.91-.3a1,1,0,0,1,0-2h0l198.91.3a1,1,0,0,1,0,2Z" transform="translate(-155.04 -65.6)"/><path class="cls-5" d="M739,766.43h0L460,766a1,1,0,0,1,0-2h0l279,.42a1,1,0,0,1,0,2Z" transform="translate(-155.04 -65.6)"/><path class="cls-5" d="M576.42,787.56h0L460,787.39a1,1,0,1,1,0-2h0l116.44.17a1,1,0,1,1,0,2Z" transform="translate(-155.04 -65.6)"/><path class="cls-5" d="M628.22,787.64h0l-38.74-.06a1,1,0,0,1,0-2h0l38.74.06a1,1,0,0,1,0,2Z" transform="translate(-155.04 -65.6)"/><path class="cls-5" d="M658.86,810.43h0l-198.92-.29a1,1,0,0,1-1-1,1,1,0,0,1,1-1h0l198.91.29a1,1,0,0,1,0,2Z" transform="translate(-155.04 -65.6)"/><path class="cls-5" d="M398.13,401.17a28.4,28.4,0,0,1-3.45-.21,1,1,0,0,1-.87-1.11,1,1,0,0,1,1.11-.87,27.45,27.45,0,0,0,6.47,0,1,1,0,1,1,.25,2A29.4,29.4,0,0,1,398.13,401.17Zm-9.85-1.8a.84.84,0,0,1-.35-.07,28.55,28.55,0,0,1-6.16-3.24,1,1,0,0,1,1.14-1.64,26.56,26.56,0,0,0,5.73,3,1,1,0,0,1,.58,1.29A1,1,0,0,1,388.28,399.37Zm19.75,0a1,1,0,0,1-.36-1.94,26.53,26.53,0,0,0,5.72-3,1,1,0,0,1,1.39.25,1,1,0,0,1-.25,1.39,28.89,28.89,0,0,1-6.14,3.25A.92.92,0,0,1,408,399.35Zm-30.71-7.56a1,1,0,0,1-.75-.34,28.85,28.85,0,0,1-3.95-5.72,1,1,0,0,1,1.77-.93,26.57,26.57,0,0,0,3.68,5.32,1,1,0,0,1-.09,1.42A1,1,0,0,1,377.32,391.79Zm41.65,0a1,1,0,0,1-.66-.25,1,1,0,0,1-.09-1.41,26.66,26.66,0,0,0,3.67-5.34,1,1,0,0,1,1.78.93,29.21,29.21,0,0,1-3.95,5.73A1,1,0,0,1,419,391.75ZM371.12,380a1,1,0,0,1-1-.76,28.52,28.52,0,0,1-.84-6.9,1,1,0,0,1,1-1h0a1,1,0,0,1,1,1,26.61,26.61,0,0,0,.78,6.42,1,1,0,0,1-.73,1.21A1,1,0,0,1,371.12,380Zm54-.05-.23,0a1,1,0,0,1-.74-1.21,27.19,27.19,0,0,0,.77-6.43v-.11a1,1,0,0,1,2,0v.1a29,29,0,0,1-.83,6.91A1,1,0,0,1,425.15,379.94Zm-54.06-13.28a.91.91,0,0,1-.23,0,1,1,0,0,1-.74-1.2,29.28,29.28,0,0,1,2.44-6.52,1,1,0,0,1,1.78.93,26.87,26.87,0,0,0-2.28,6.06A1,1,0,0,1,371.09,366.66Zm54-.17a1,1,0,0,1-1-.75,26.41,26.41,0,0,0-2.31-6.05,1,1,0,0,1,1.77-.93,28.51,28.51,0,0,1,2.48,6.49,1,1,0,0,1-.72,1.22A1.1,1.1,0,0,1,425.12,366.49Zm-47.87-11.65a1,1,0,0,1-.66-.25,1,1,0,0,1-.1-1.41,29,29,0,0,1,5.19-4.64,1,1,0,1,1,1.14,1.64A27.09,27.09,0,0,0,378,354.5,1,1,0,0,1,377.25,354.84Zm41.65-.13a1,1,0,0,1-.75-.33,27.11,27.11,0,0,0-4.85-4.29,1,1,0,0,1,1.14-1.65,29.27,29.27,0,0,1,5.21,4.61,1,1,0,0,1-.09,1.41A1,1,0,0,1,418.9,354.71Zm-30.73-7.5a1,1,0,0,1-.93-.64,1,1,0,0,1,.57-1.29,29,29,0,0,1,6.75-1.69,1,1,0,0,1,1.12.87,1,1,0,0,1-.87,1.12,26.64,26.64,0,0,0-6.28,1.57A1.13,1.13,0,0,1,388.17,347.21Zm19.75-.06a1.07,1.07,0,0,1-.35-.06,26.64,26.64,0,0,0-6.29-1.53,1,1,0,0,1,.23-2,28.43,28.43,0,0,1,6.76,1.65,1,1,0,0,1,.59,1.29A1,1,0,0,1,407.92,347.15Z" transform="translate(-155.04 -65.6)"/><path class="cls-5" d="M398.14,506.64h0a28.4,28.4,0,0,1-3.45-.21,1,1,0,0,1-.87-1.11,1,1,0,0,1,1.11-.87c1.06.12,2.12.16,3.22.19a27,27,0,0,0,3.25-.2,1,1,0,1,1,.25,2A29.23,29.23,0,0,1,398.14,506.64Zm-9.86-1.8a.84.84,0,0,1-.35-.07,28.55,28.55,0,0,1-6.16-3.24,1,1,0,0,1,1.14-1.64,26.56,26.56,0,0,0,5.73,3,1,1,0,0,1,.58,1.29A1,1,0,0,1,388.28,504.84Zm19.75,0a1,1,0,0,1-.36-1.94,26.53,26.53,0,0,0,5.72-3,1,1,0,0,1,1.39.25,1,1,0,0,1-.25,1.39,28.44,28.44,0,0,1-6.14,3.25A.92.92,0,0,1,408,504.82Zm-30.71-7.56a1,1,0,0,1-.75-.34,29.14,29.14,0,0,1-3.95-5.72,1,1,0,1,1,1.77-.93,26.57,26.57,0,0,0,3.68,5.32A1,1,0,0,1,378,497,1,1,0,0,1,377.32,497.26Zm41.65,0a1,1,0,0,1-.66-.25,1,1,0,0,1-.09-1.41,27.13,27.13,0,0,0,3.68-5.34,1,1,0,0,1,1.34-.42,1,1,0,0,1,.43,1.35,29.21,29.21,0,0,1-3.95,5.73A1,1,0,0,1,419,497.22Zm-47.85-11.76a1,1,0,0,1-1-.76,28.46,28.46,0,0,1-.84-6.9,1,1,0,0,1,1-1h0a1,1,0,0,1,1,1,26.61,26.61,0,0,0,.78,6.42,1,1,0,0,1-.73,1.21Zm54,0-.23,0a1,1,0,0,1-.74-1.21,27.19,27.19,0,0,0,.77-6.43v-.11a1,1,0,0,1,2,0v.1a29,29,0,0,1-.83,6.91A1,1,0,0,1,425.15,485.41Zm-54.06-13.28a.91.91,0,0,1-.23,0,1,1,0,0,1-.74-1.2,29.28,29.28,0,0,1,2.44-6.52,1,1,0,0,1,1.78.93,26.87,26.87,0,0,0-2.28,6.06A1,1,0,0,1,371.09,472.13Zm54-.17a1,1,0,0,1-1-.75,26.41,26.41,0,0,0-2.31-6,1,1,0,0,1,1.77-.93,28.69,28.69,0,0,1,2.48,6.49,1,1,0,0,1-.72,1.22A1.1,1.1,0,0,1,425.12,472Zm-47.87-11.65a1,1,0,0,1-.66-.25,1,1,0,0,1-.1-1.41,29,29,0,0,1,5.19-4.64,1,1,0,1,1,1.14,1.64A27.09,27.09,0,0,0,378,460,1,1,0,0,1,377.25,460.31Zm41.65-.13a1,1,0,0,1-.75-.33,27.11,27.11,0,0,0-4.85-4.29,1,1,0,0,1,1.14-1.65,29.27,29.27,0,0,1,5.21,4.61,1,1,0,0,1-.75,1.66Zm-30.73-7.49a1,1,0,0,1-.36-1.94,28.52,28.52,0,0,1,6.75-1.68,1,1,0,1,1,.25,2,26.64,26.64,0,0,0-6.28,1.57A1.15,1.15,0,0,1,388.17,452.69Zm19.75-.07a1.07,1.07,0,0,1-.35-.06,26.64,26.64,0,0,0-6.29-1.53,1,1,0,1,1,.23-2,28.63,28.63,0,0,1,6.77,1.65,1,1,0,0,1,.58,1.29A1,1,0,0,1,407.92,452.62Z" transform="translate(-155.04 -65.6)"/><path class="cls-5" d="M398.13,612.11a28.4,28.4,0,0,1-3.45-.21,1,1,0,0,1,.24-2,27.45,27.45,0,0,0,6.47,0,1,1,0,1,1,.25,2A29.4,29.4,0,0,1,398.13,612.11Zm-9.85-1.8a.84.84,0,0,1-.35-.07,28.55,28.55,0,0,1-6.16-3.24,1,1,0,0,1,1.14-1.64,26.56,26.56,0,0,0,5.73,3,1,1,0,0,1,.58,1.29A1,1,0,0,1,388.28,610.31Zm19.75,0a1,1,0,0,1-.36-1.94,26.53,26.53,0,0,0,5.72-3,1,1,0,0,1,1.39.25,1,1,0,0,1-.25,1.39,28.44,28.44,0,0,1-6.14,3.25A.92.92,0,0,1,408,610.29Zm-30.71-7.56a1,1,0,0,1-.75-.34,28.85,28.85,0,0,1-3.95-5.72,1,1,0,1,1,1.77-.93,26.57,26.57,0,0,0,3.68,5.32,1,1,0,0,1-.09,1.42A1,1,0,0,1,377.32,602.73Zm41.65,0a1,1,0,0,1-.66-.25,1,1,0,0,1-.09-1.41,26.66,26.66,0,0,0,3.67-5.34,1,1,0,0,1,1.78.93,29.21,29.21,0,0,1-3.95,5.73A1,1,0,0,1,419,602.69Zm-47.85-11.76a1,1,0,0,1-1-.76,28.52,28.52,0,0,1-.84-6.9,1,1,0,0,1,1-1h0a1,1,0,0,1,1,1,26.61,26.61,0,0,0,.78,6.42,1,1,0,0,1-.73,1.21Zm54,0-.23,0a1,1,0,0,1-.74-1.21,27.19,27.19,0,0,0,.77-6.43v-.11a1,1,0,0,1,2,0v.1a29,29,0,0,1-.83,6.91A1,1,0,0,1,425.15,590.88ZM371.09,577.6a.91.91,0,0,1-.23,0,1,1,0,0,1-.74-1.2,29.28,29.28,0,0,1,2.44-6.52,1,1,0,0,1,1.78.93,26.87,26.87,0,0,0-2.28,6.06A1,1,0,0,1,371.09,577.6Zm54-.17a1,1,0,0,1-1-.75,26.41,26.41,0,0,0-2.31-6,1,1,0,1,1,1.77-.93,28.51,28.51,0,0,1,2.48,6.49,1,1,0,0,1-.72,1.22A1.1,1.1,0,0,1,425.12,577.43Zm-47.87-11.65a1,1,0,0,1-.66-.25,1,1,0,0,1-.1-1.41,29,29,0,0,1,5.19-4.64,1,1,0,1,1,1.14,1.64,27.09,27.09,0,0,0-4.82,4.32A1,1,0,0,1,377.25,565.78Zm41.65-.13a1,1,0,0,1-.75-.33A27.11,27.11,0,0,0,413.3,561a1,1,0,0,1,1.14-1.65,29.27,29.27,0,0,1,5.21,4.61,1,1,0,0,1-.09,1.41A1,1,0,0,1,418.9,565.65Zm-30.73-7.5a1,1,0,0,1-.93-.64,1,1,0,0,1,.57-1.29,29,29,0,0,1,6.75-1.69,1,1,0,0,1,.25,2,26.64,26.64,0,0,0-6.28,1.57A1.13,1.13,0,0,1,388.17,558.15Zm19.75-.06a1.07,1.07,0,0,1-.35-.06,26.64,26.64,0,0,0-6.29-1.53,1,1,0,0,1,.23-2,28.43,28.43,0,0,1,6.76,1.65,1,1,0,0,1,.59,1.29A1,1,0,0,1,407.92,558.09Z" transform="translate(-155.04 -65.6)"/><path class="cls-5" d="M398.14,717.58h0a28.4,28.4,0,0,1-3.45-.21,1,1,0,0,1-.87-1.11,1,1,0,0,1,1.11-.87,28.65,28.65,0,0,0,3.21.19h0a27,27,0,0,0,3.25-.2,1,1,0,1,1,.25,2A29.23,29.23,0,0,1,398.14,717.58Zm-9.86-1.8a.84.84,0,0,1-.35-.07,28.55,28.55,0,0,1-6.16-3.24,1,1,0,0,1,1.14-1.64,26.56,26.56,0,0,0,5.73,3,1,1,0,0,1,.58,1.29A1,1,0,0,1,388.28,715.78Zm19.75,0a1,1,0,0,1-.36-1.94,26.53,26.53,0,0,0,5.72-3,1,1,0,0,1,1.39.25,1,1,0,0,1-.25,1.39,28.44,28.44,0,0,1-6.14,3.25A.92.92,0,0,1,408,715.76Zm-30.71-7.56a1,1,0,0,1-.75-.34,29.14,29.14,0,0,1-3.95-5.72,1,1,0,0,1,1.77-.93,26.57,26.57,0,0,0,3.68,5.32A1,1,0,0,1,378,708,1,1,0,0,1,377.32,708.2Zm41.65,0a1,1,0,0,1-.66-.25,1,1,0,0,1-.09-1.41,27.13,27.13,0,0,0,3.68-5.34,1,1,0,0,1,1.34-.42,1,1,0,0,1,.43,1.35,29.21,29.21,0,0,1-3.95,5.73A1,1,0,0,1,419,708.16ZM371.12,696.4a1,1,0,0,1-1-.76,28.46,28.46,0,0,1-.84-6.9,1,1,0,0,1,1-1h0a1,1,0,0,1,1,1,26.61,26.61,0,0,0,.78,6.42,1,1,0,0,1-.73,1.21Zm54,0-.23,0a1,1,0,0,1-.74-1.21,27.19,27.19,0,0,0,.77-6.43v-.11a1,1,0,0,1,2,0v.1a29,29,0,0,1-.83,6.91A1,1,0,0,1,425.15,696.35Zm-54.06-13.28a.91.91,0,0,1-.23,0,1,1,0,0,1-.74-1.2,29.28,29.28,0,0,1,2.44-6.52,1,1,0,0,1,1.78.93,26.87,26.87,0,0,0-2.28,6.06A1,1,0,0,1,371.09,683.07Zm54-.17a1,1,0,0,1-1-.75,26.41,26.41,0,0,0-2.31-6,1,1,0,0,1,1.77-.93,28.69,28.69,0,0,1,2.48,6.49,1,1,0,0,1-.72,1.22A1.1,1.1,0,0,1,425.12,682.9Zm-47.87-11.65a1,1,0,0,1-.66-.25,1,1,0,0,1-.1-1.41,29,29,0,0,1,5.19-4.64,1,1,0,1,1,1.14,1.64,27.09,27.09,0,0,0-4.82,4.32A1,1,0,0,1,377.25,671.25Zm41.65-.13a1,1,0,0,1-.75-.33,27.11,27.11,0,0,0-4.85-4.29,1,1,0,0,1,1.14-1.65,29.27,29.27,0,0,1,5.21,4.61,1,1,0,0,1-.75,1.66Zm-30.73-7.49a1,1,0,0,1-.36-1.94,28.52,28.52,0,0,1,6.75-1.68,1,1,0,1,1,.25,2,26.64,26.64,0,0,0-6.28,1.57A1.15,1.15,0,0,1,388.17,663.63Zm19.75-.07a1.07,1.07,0,0,1-.35-.06,26.64,26.64,0,0,0-6.29-1.53,1,1,0,0,1,.23-2,28.63,28.63,0,0,1,6.77,1.65,1,1,0,0,1,.58,1.29A1,1,0,0,1,407.92,663.56Z" transform="translate(-155.04 -65.6)"/><path class="cls-5" d="M398.14,818.41h0a28.4,28.4,0,0,1-3.45-.21,1,1,0,0,1-.87-1.11,1,1,0,0,1,1.11-.87,22.83,22.83,0,0,0,3.22.19,27,27,0,0,0,3.25-.2,1,1,0,0,1,1.12.87,1,1,0,0,1-.87,1.12A29.23,29.23,0,0,1,398.14,818.41Zm-9.86-1.8a.84.84,0,0,1-.35-.07,29,29,0,0,1-6.16-3.23,1,1,0,0,1,1.14-1.65,26.13,26.13,0,0,0,5.73,3,1,1,0,0,1,.58,1.29A1,1,0,0,1,388.28,816.61Zm19.75,0a1,1,0,0,1-.36-1.93,26.57,26.57,0,0,0,5.72-3,1,1,0,0,1,1.39.25,1,1,0,0,1-.25,1.39,28.44,28.44,0,0,1-6.14,3.25A.92.92,0,0,1,408,816.59ZM377.32,809a1,1,0,0,1-.75-.34,28.85,28.85,0,0,1-3.95-5.72,1,1,0,1,1,1.77-.93,26.93,26.93,0,0,0,3.68,5.33,1,1,0,0,1-.09,1.41A1,1,0,0,1,377.32,809ZM419,809a1,1,0,0,1-.66-.25,1,1,0,0,1-.09-1.41A27.13,27.13,0,0,0,421.9,802a1,1,0,0,1,1.34-.42,1,1,0,0,1,.43,1.35,28.92,28.92,0,0,1-3.95,5.73A1,1,0,0,1,419,809Zm-47.85-11.76a1,1,0,0,1-1-.76,28.46,28.46,0,0,1-.84-6.9,1,1,0,0,1,1-1h0a1,1,0,0,1,1,1,26.61,26.61,0,0,0,.78,6.42,1,1,0,0,1-.73,1.21Zm54-.05-.23,0a1,1,0,0,1-.74-1.21,27.13,27.13,0,0,0,.77-6.43v-.11a1,1,0,0,1,2,0v.1a29,29,0,0,1-.83,6.91A1,1,0,0,1,425.15,797.18ZM371.09,783.9a.9.9,0,0,1-.23,0,1,1,0,0,1-.74-1.21,29,29,0,0,1,2.44-6.51,1,1,0,0,1,1.78.92,26.87,26.87,0,0,0-2.28,6.06A1,1,0,0,1,371.09,783.9Zm54-.16a1,1,0,0,1-1-.76,26.41,26.41,0,0,0-2.31-6.05,1,1,0,1,1,1.77-.93,28.59,28.59,0,0,1,2.48,6.5,1,1,0,0,1-.72,1.21Zm-47.87-11.66a1,1,0,0,1-.66-.25,1,1,0,0,1-.1-1.41,29,29,0,0,1,5.19-4.64,1,1,0,1,1,1.14,1.64,27.09,27.09,0,0,0-4.82,4.32A1,1,0,0,1,377.25,772.08ZM418.9,772a1,1,0,0,1-.75-.33,27.11,27.11,0,0,0-4.85-4.29,1,1,0,0,1-.25-1.39,1,1,0,0,1,1.39-.26,29.27,29.27,0,0,1,5.21,4.61,1,1,0,0,1-.75,1.66Zm-30.73-7.49a1,1,0,0,1-.35-1.94,28.33,28.33,0,0,1,6.74-1.68,1,1,0,1,1,.25,2,27.13,27.13,0,0,0-6.28,1.57A.92.92,0,0,1,388.17,764.46Zm19.75-.06a1.09,1.09,0,0,1-.35-.07,26.64,26.64,0,0,0-6.29-1.53,1,1,0,1,1,.23-2,29.12,29.12,0,0,1,6.77,1.65,1,1,0,0,1-.36,1.94Z" transform="translate(-155.04 -65.6)"/><path class="cls-7" d="M440.23,338.46c-17,8.24-30.65,21.32-42.61,35.64a95,95,0,0,0-20.91-10.6l-.6.68c6.66,6.27,16.22,14.92,23.1,21.14,13.51-14.57,28.62-31.34,41.69-46.24Z" transform="translate(-155.04 -65.6)"/><path class="cls-7" d="M440.23,549.35c-17,8.24-30.65,21.32-42.61,35.64a95,95,0,0,0-20.91-10.6l-.6.68c6.66,6.27,16.22,14.92,23.1,21.14,13.51-14.57,28.62-31.34,41.69-46.24Z" transform="translate(-155.04 -65.6)"/><path class="cls-7" d="M440.23,654.8c-17,8.24-30.65,21.32-42.61,35.63a95.39,95.39,0,0,0-20.91-10.6l-.6.68c6.66,6.28,16.22,14.93,23.1,21.14,13.51-14.56,28.62-31.34,41.69-46.24Z" transform="translate(-155.04 -65.6)"/><path class="cls-7" d="M441.24,755.77c-17,8.24-30.64,21.32-42.6,35.64a94.52,94.52,0,0,0-20.91-10.6l-.61.68c6.67,6.27,16.23,14.92,23.1,21.14,13.51-14.57,28.63-31.35,41.69-46.25Z" transform="translate(-155.04 -65.6)"/><path class="cls-6" d="M408.93,493.67l4.86-5.27-12.18-10.69,12-10.92-5-5.18-10.57,12.51L387.5,461.81l-4.86,5.27,11.94,10.7L382.83,488.7l4.95,5.17,10.36-12.51Z" transform="translate(-155.04 -65.6)"/><path class="cls-2" d="M866.51,387.47a137.65,137.65,0,0,1-134.26-108.2c-15.64-71.5,29.7-143.1,100.2-162.47l-5.87-27.66-23,5.75-3.16-12,58.1-13,3.3,11.91-22.77,4.37,5.17,28.34c6.28-.88,16.24-2.16,22.55-2.16A137.6,137.6,0,0,1,982.47,324.11a136.64,136.64,0,0,1-86.42,60.15,138.38,138.38,0,0,1-29.53,3.21Z" transform="translate(-155.04 -65.6)"/><circle class="cls-4" cx="866.65" cy="249.87" r="126.36" transform="translate(-77.89 620.4) rotate(-45)"/><path class="cls-2" d="M880.78,357.1a9.11,9.11,0,1,1,10.85,6.95A9.12,9.12,0,0,1,880.78,357.1Z" transform="translate(-155.04 -65.6)"/><path class="cls-2" d="M948,309a5.32,5.32,0,1,1,6.33,4.05A5.32,5.32,0,0,1,948,309Z" transform="translate(-155.04 -65.6)"/><path class="cls-2" d="M807.52,331.17a5.31,5.31,0,1,1-4,6.33A5.32,5.32,0,0,1,807.52,331.17Z" transform="translate(-155.04 -65.6)"/><path class="cls-2" d="M785.34,190.74a5.31,5.31,0,1,1-6.32-4.06A5.3,5.3,0,0,1,785.34,190.74Z" transform="translate(-155.04 -65.6)"/><path class="cls-2" d="M925.78,168.56a5.31,5.31,0,1,1,4.05-6.32A5.32,5.32,0,0,1,925.78,168.56Z" transform="translate(-155.04 -65.6)"/><path class="cls-2" d="M759.42,264a9.11,9.11,0,1,1-6.95,10.84A9.11,9.11,0,0,1,759.42,264Z" transform="translate(-155.04 -65.6)"/><path class="cls-2" d="M852.52,142.63a9.11,9.11,0,1,1-10.85-6.95A9.12,9.12,0,0,1,852.52,142.63Z" transform="translate(-155.04 -65.6)"/><path class="cls-2" d="M973.88,235.73a9.11,9.11,0,1,1,7-10.84A9.1,9.1,0,0,1,973.88,235.73Z" transform="translate(-155.04 -65.6)"/><path class="cls-2" d="M917.31,266.63c-2.54-2.51-3.58-4.12-5.25-4.1a3.86,3.86,0,0,0-2.68,1.47l-33.51-11.89a7.26,7.26,0,0,0-.12-2.07,7.35,7.35,0,0,0-7.39-5.78l-18-73.59a3.87,3.87,0,0,0,1.73-2.52c.19-1.66-1.31-2.85-3.54-5.64a46.88,46.88,0,0,1-4.57-6.83,47.28,47.28,0,0,1-.89,8.17c-.7,3.5-1.48,5.25-.54,6.63a3.84,3.84,0,0,0,2.7,1.44l18.2,74.41a6.87,6.87,0,0,0-.89,1l-5.51-2-1.76,5,6,2.12c0,.23,0,.45.08.68a7.32,7.32,0,0,0,5.11,5.46l2,8.13,5.11-1.25-1.78-7.31a7.31,7.31,0,0,0,1.87-1.31l34,12a3.91,3.91,0,0,0,1.16,2.83c1.29,1.07,3.11.47,6.66.13a46.29,46.29,0,0,1,8.22-.06A47.69,47.69,0,0,1,917.31,266.63Z" transform="translate(-155.04 -65.6)"/><path class="cls-8" d="M946.71,369.87c15.64,15.14-40.47,97.45-54.44,116.22-10.36,13.81-18.59,24.86-31,26.85-36,5.75-42.4-22.31-36.4-37.77C839.34,434.64,924.17,348.06,946.71,369.87Z" transform="translate(-155.04 -65.6)"/><path class="cls-9" d="M847.6,426.15l63.5,46.34,20.18-31.07c20.6-31.7,41.43-78.82,32.34-86.21-9.82-8-38-1.62-75.32,28.56C870.18,398.43,865.26,404.84,847.6,426.15Z" transform="translate(-155.04 -65.6)"/><path class="cls-10" d="M911.09,473.49a1,1,0,0,1-.58-.19L847,427a1,1,0,1,1,1.18-1.61l63.5,46.34a1,1,0,0,1,.21,1.4A1,1,0,0,1,911.09,473.49Z" transform="translate(-155.04 -65.6)"/><path class="cls-10" d="M911.09,473.49a1,1,0,0,1-.83-1.54l20.19-31.08a319,319,0,0,0,27.21-52C964.77,371,966.71,359,963,356a1,1,0,1,1,1.26-1.55c10,8.15-12,56.47-32.13,87.52L911.93,473A1,1,0,0,1,911.09,473.49Z" transform="translate(-155.04 -65.6)"/><polygon class="cls-8" points="688.57 699.81 678.98 771.34 600.44 757.35 612.19 676.75 688.57 699.81"/><path class="cls-11" d="M840.15,791.19s6.48,5.16,5.66,21.34.05,76,.05,76H686.34s-10.83-22.21,9.74-29.07,59.53-56.4,63.65-65.58c0,0,16.5-13.36,32.28,6.63C801.65,812.7,838.92,795.1,840.15,791.19Z" transform="translate(-155.04 -65.6)"/><path class="cls-12" d="M799.84,595.17c0,46.17,47.19,43,47.19,43,8.32-2,20.05,0,34.43,1.94A249.21,249.21,0,0,0,907,642.48c1.62.06,3.26.09,4.92.1.92,0,1.85,0,2.79,0,5.9,0,12.1-.1,18.49-.41,68.57-3.26,158.67-26.67,136.16-98-15.65-1.23-41.73-16.51-41.78-16.52-33.83-1.51-66.24,9.59-98,11.73-7.31.49-24.07,3.23-31,4l-2.26.26c-10.69,1.21-20.84,2.78-30.27,4.74l-.24.05a190,190,0,0,0-26.49,7.36,103.86,103.86,0,0,0-17.12,8C808.83,571.68,800.71,582,799.84,595.17Z" transform="translate(-155.04 -65.6)"/><path class="cls-12" d="M856.61,558.43c-13.41-2.79-44.61,5.4-54.71,27.17-27.46,58.9-45.63,194.5-45.63,194.5L853.91,782c35.59-102.93,39.91-168,39.91-168C899.28,587.1,878.57,563,856.61,558.43Z" transform="translate(-155.04 -65.6)"/><polygon class="cls-8" points="834.65 704.66 832.18 763.89 758.55 758.96 758.55 696.14 834.65 704.66"/><path class="cls-2" d="M988.62,796s5.87,7.13,8.06,20,0,72.67,0,72.67h-153s-.55-12.88,0-17.82,30.17-32.36,45.52-41.41S913.59,798,913.59,798s21.26-6.36,34.81,8.89C957.93,817.66,987.52,800.15,988.62,796Z" transform="translate(-155.04 -65.6)"/><polygon class="cls-8" points="864.62 332.81 761.97 351.38 781.95 294.68 796.1 286.99 795.34 269.84 795.32 269.16 795.27 265.13 820.08 254.63 823.21 286.15 825.73 290.06 864.62 332.81"/><path class="cls-9" d="M978.05,350.8s37.7-1.56,66.11,9.9c0,0,26.08,22.19,60.14,171.4a551.31,551.31,0,0,1-60.06,13.6c-34.21,5.8-90.61-9.22-90.61-9.22s-3.75-38.74-27.88-81.5-5.27-86.46-5.27-86.46,6-6.16,30.66-15.94c0,0-20.71,28.7,4.42,30.38C969.81,383.91,982.5,370.49,978.05,350.8Z" transform="translate(-155.04 -65.6)"/><path class="cls-10" d="M953.63,537.48a1,1,0,0,1-1-.94c0-.39-2.61-39.84-27.75-81-16.13-26.43-12.24-55.06-12.2-55.34a1,1,0,1,1,2,.28c0,.28-3.81,28.22,11.93,54,25.41,41.64,28,81.57,28,82a1,1,0,0,1-.94,1.05Z" transform="translate(-155.04 -65.6)"/><path class="cls-12" d="M1104.3,532.1C1050.91,545,957.11,560.37,945.55,568c0,0-31.89,16.68-25.51,57.56,8.2,52.5,59.31,38.61,59.31,38.61,53.19-16.15,67.22-.54,107.08-25.73S1104.3,532.1,1104.3,532.1Z" transform="translate(-155.04 -65.6)"/><path class="cls-12" d="M1006.45,601.79c-.17-2.11-8.11-34-40.68-37a39.59,39.59,0,0,0-37.09,17.31c-24.66,38.31-21.15,211-21.15,211l86.85.94C1020.16,650.57,1009.19,621.09,1006.45,601.79Z" transform="translate(-155.04 -65.6)"/><path class="cls-10" d="M907.53,794.15a1,1,0,0,1-1-1c-.15-7.07-3.23-173.47,21.31-211.59a1,1,0,1,1,1.68,1.09c-24.21,37.6-21,208.73-21,210.46a1,1,0,0,1-1,1Z" transform="translate(-155.04 -65.6)"/><path class="cls-10" d="M976.61,335.23s24-11.83,23.9-20.76-4.74-10.07-4.74-10.07,7.58-5.92,3-12.21S994.4,281,992.3,278.44l-22.13,15.85s-1.31,24.31,1.05,29.37C974.51,330.76,976.61,335.23,976.61,335.23Z" transform="translate(-155.04 -65.6)"/><path class="cls-8" d="M951.39,339c12.75,4.45,22.39-8.24,22.84-8.79,4.94-6.07,8.26-17.19,8.27-24.88,0-16.12-19.8-27.54-33.45-18.32a22.77,22.77,0,0,0-10,23.65l-.07.59C939,314,939.27,334.8,951.39,339Z" transform="translate(-155.04 -65.6)"/><path class="cls-10" d="M970.28,306.38a8.39,8.39,0,0,0-4-2.53c-2.36-.56-3.54,1-3.49,1.62s2.08.32,3.86,1.19S970.31,307.65,970.28,306.38Z" transform="translate(-155.04 -65.6)"/><path class="cls-10" d="M943.52,306.07a8.37,8.37,0,0,1,4.06-2.45c2.37-.5,3.52,1.07,3.45,1.7s-2.08.28-3.88,1.11S943.46,307.34,943.52,306.07Z" transform="translate(-155.04 -65.6)"/><path class="cls-10" d="M963.85,312.31c0,1.27.75,2.29,1.63,2.28s1.6-1,1.58-2.31-.74-2.29-1.63-2.28S963.84,311.05,963.85,312.31Z" transform="translate(-155.04 -65.6)"/><path class="cls-10" d="M946.18,312.68c0,1.27.75,2.29,1.63,2.28s1.6-1,1.58-2.31-.74-2.29-1.63-2.28S946.17,311.42,946.18,312.68Z" transform="translate(-155.04 -65.6)"/><path class="cls-10" d="M954.25,331.39a4.94,4.94,0,0,1-4.87-3,1,1,0,0,1,1.88-.67c.1.24,1,2.26,4.44,1.49,3.62-.81,3.89-2.59,4.07-3.77l0-.18a1,1,0,0,1,2,.32l0,.16c-.2,1.29-.66,4.31-5.62,5.42A8.77,8.77,0,0,1,954.25,331.39Z" transform="translate(-155.04 -65.6)"/><path class="cls-10" d="M952.94,323.19a3.26,3.26,0,0,1-2.45-1.12c-1.14-1.28-.26-3,.51-4.5a27.92,27.92,0,0,0,1.47-4.29,1,1,0,0,1,1.94.51,30.81,30.81,0,0,1-1.63,4.69c-.31.6-1,2-.79,2.26a1.38,1.38,0,0,0,1.68.29,1,1,0,1,1,.76,1.85A4,4,0,0,1,952.94,323.19Z" transform="translate(-155.04 -65.6)"/><path class="cls-10" d="M992.8,279.19a9.76,9.76,0,0,0-5.71-4.87c-3.3-.91-6.19,1.78-8.11,1.69s-3.23-7.22-13.12-6.87-10.73,5.71-13.33,6.38a41.31,41.31,0,0,1-14,1.48c-6.59-.45-6.33,11.85-7.51,12.94s-10.62,5.06-9.63,12.79,9.21,8.49,9.21,8.49a10.79,10.79,0,0,1-5.08-6.28c-.86-2.65.87-3.76.87-3.76s-.47,4.45,2.22,6.36,4.65,3.17,4.65,3.17-1.19,5.07,5.88,5.28c0,0,.46-9.63,1.12-15.28s.86-5.74,1.5-5.69,3.08,3.33,9.21,3.75,15.86-1.29,19.71-2.23,5.44,5.51,4.54,8,5.36,4.92,5.72,7.79,2.17,11.27,2.17,11.27,2.67-.09,5.44-7S992.8,279.19,992.8,279.19Z" transform="translate(-155.04 -65.6)"/><path class="cls-10" d="M932.43,288.31s-6.25,1-8.84,2.91a7.22,7.22,0,0,0-2.7,5.19,8.63,8.63,0,0,1,3.33-4c2.46-1.54,6.93-1.93,6.93-1.93Z" transform="translate(-155.04 -65.6)"/><path class="cls-10" d="M933.81,283.19s-1.67,4.16-4.66,4.51-6.25-1.33-6.5-3.69a5.61,5.61,0,0,1,.77-3.74s.48,4.59,2.14,5.53,5.22.21,6.59-2.53a26.89,26.89,0,0,1,2.23-4.08Z" transform="translate(-155.04 -65.6)"/><path class="cls-8" d="M988.76,300.63c-1.85-2.06-4.69-1.22-7,.06-2.14,1.19-3.24,3.15-2.71,5,1.29,4.43-1.67,9.48-2.18,14.23C993.24,318,992.32,304.6,988.76,300.63Z" transform="translate(-155.04 -65.6)"/><path class="cls-10" d="M986.48,304.4c-1.21-.33-2.92,0-3.49,1-.26.43.51.74.85.32a1.36,1.36,0,0,1,1.24-.43,1.74,1.74,0,0,1,1,.67c.64.82.12,1.91-.3,2.77a11.13,11.13,0,0,1-1.68,2.45c-.72.82-1.74,1.46-2.47,2.26s.7,1.69,1.69,1.15a7.65,7.65,0,0,0,1.86-1.6,15.75,15.75,0,0,0,1.33-1.65,10,10,0,0,0,1.69-3.73A2.61,2.61,0,0,0,986.48,304.4Z" transform="translate(-155.04 -65.6)"/><path class="cls-10" d="M956,340.51a20,20,0,0,1-4.86-.53,1,1,0,0,1-.69-1.23,1,1,0,0,1,1.23-.7c.77.22,18.79,5,26.52-18.59a1,1,0,0,1,1.27-.64,1,1,0,0,1,.63,1.26C974.27,337.79,962.59,340.51,956,340.51Z" transform="translate(-155.04 -65.6)"/><path class="cls-10" d="M977.18,320.81c-.68,0-1.18,0-1.34,0a1,1,0,0,1,0-2h0c2,.08,5.72,0,6.87-.67a1,1,0,0,1,1,1.75C982.28,320.69,979,320.81,977.18,320.81Z" transform="translate(-155.04 -65.6)"/><path class="cls-8" d="M1033,372c-19.76,9.11,11.89,117.5,18.88,139.83,5.21,16.45,14.32,30.41,22.68,34,33.57,14.33,45.49-5.49,44.93-22.07C1119.24,480.73,1061.52,358.9,1033,372Z" transform="translate(-155.04 -65.6)"/><path class="cls-9" d="M1114.15,466.6l-82.83,16.87s-11.17-34-13.88-46.33c-8.1-36.93-.78-70.59,18.35-76.23,17.77-5.25,38.37,22,56.5,56.07C1106.63,443.93,1109.54,454.32,1114.15,466.6Z" transform="translate(-155.04 -65.6)"/><path class="cls-10" d="M1031.32,484.47a1,1,0,0,1-.2-2L1114,465.62a1,1,0,0,1,.39,2l-82.83,16.87A.68.68,0,0,1,1031.32,484.47Z" transform="translate(-155.04 -65.6)"/><path class="cls-10" d="M1031.32,484.47a1,1,0,0,1-.94-.67c-.49-1.38-11.91-34.09-13.93-46.5-5.08-31.38-3.38-39.27-1.23-49.26l.23-1a1,1,0,0,1,1.95.42l-.22,1c-2.11,9.79-3.77,17.52,1.25,48.52,2,12.24,13.72,45.82,13.83,46.16a1,1,0,0,1-.61,1.28A1.26,1.26,0,0,1,1031.32,484.47Z" transform="translate(-155.04 -65.6)"/><path class="cls-8" d="M1118,520.78c-7.64-24.78-34.07-30.12-59.38-15.58-13.07,7.51-34,20.79-80.28,49.8l17.73,28.51s71-8.94,107.65-32.36C1103.72,551.15,1124,540.42,1118,520.78Z" transform="translate(-155.04 -65.6)"/><path class="cls-10" d="M978.33,556a1,1,0,0,1-.85-.47,1,1,0,0,1,.32-1.38c46.46-29.14,69.78-43.7,83-51.27a1,1,0,1,1,1,1.73c-12.56,7.22-34.73,21-82.9,51.23A.94.94,0,0,1,978.33,556Z" transform="translate(-155.04 -65.6)"/><path class="cls-8" d="M825.83,480.41c9.28-17.2,35.5-21.12,57.76-7.92,11.11,6.59,35.78,23.11,69.87,52.74l-10,19.56S869.81,540,836.27,512.3C836.27,512.3,816.07,498.49,825.83,480.41Z" transform="translate(-155.04 -65.6)"/><path class="cls-10" d="M953.46,526.23a1,1,0,0,1-.66-.24c-26.8-23.31-48.38-39.86-64.15-49.2a1,1,0,0,1,1-1.73c15.87,9.41,37.55,26,64.45,49.42a1,1,0,0,1-.66,1.75Z" transform="translate(-155.04 -65.6)"/><path class="cls-8" d="M945.41,513.71s23.06-.65,29.55,2.6,1.95,25,0,25-11.57-8.32-11-12S945.41,513.71,945.41,513.71Z" transform="translate(-155.04 -65.6)"/><path class="cls-2" d="M932.09,477.6l43.84,63.78a2.34,2.34,0,0,1-.48,3.16l-.33.27a2.34,2.34,0,0,1-3.39-.52l-43.61-64a2.34,2.34,0,0,1,.62-3.25l.1-.07A2.35,2.35,0,0,1,932.09,477.6Z" transform="translate(-155.04 -65.6)"/><path class="cls-8" d="M919.87,497s-25.11,22.84-27.38,37.13S906.13,555.6,911,555.92s8.76-.32,10.39-5.84c0,0,12.33,5.19,17.85,3.24s4.23-5.19,4.23-5.19,13,7.14,17.85,5.84,5.2-6.49,5.2-6.49,10.22,5.09,12.66,1.3c3.9-6.06-17.21-29.23-33.77-40.27S926.67,492.62,919.87,497Z" transform="translate(-155.04 -65.6)"/><path class="cls-10" d="M912.84,557c-.63,0-1.27,0-1.91-.07-3.11-.21-10.91-3.11-15.73-9.16A17,17,0,0,1,891.5,534h0c2.3-14.47,26.66-36.77,27.7-37.71l.13-.1c5.63-3.66,8.57-1.5,16.44,4.28,2.66,1.95,6,4.38,10.2,7.2,16,10.7,38.59,34.58,34,41.64-2.37,3.69-9.72.95-12.74-.38a8.08,8.08,0,0,1-5.7,6c-4.25,1.13-13.33-3.2-17.07-5.13a4.11,4.11,0,0,1-.29.88c-.69,1.53-2.25,2.73-4.64,3.58-4.93,1.73-14.47-1.66-17.59-2.87C920.23,556,916.69,557,912.84,557Zm7.64-59.15c-1.35,1.24-24.87,23-27,36.48h0a15.06,15.06,0,0,0,3.28,12.2c4.38,5.49,11.59,8.22,14.3,8.4,4.88.33,8-.41,9.37-5.13a1,1,0,0,1,1.34-.64c3.34,1.41,12.92,4.72,17.14,3.23,1.89-.67,3.12-1.57,3.53-2.61a1.91,1.91,0,0,0,.09-1.29,1,1,0,0,1,1.42-1.23c3.51,1.93,13.44,6.74,17.12,5.76,4.09-1.1,4.44-5.41,4.45-5.6a1,1,0,0,1,1.44-.83c3.08,1.53,9.91,3.95,11.38,1.66,3.21-5-15.88-27.16-33.48-38.89-4.27-2.85-7.6-5.29-10.27-7.25C926.63,496.25,924.76,495.08,920.48,497.84Zm-28,36.33h0Z" transform="translate(-155.04 -65.6)"/><path class="cls-10" d="M966.52,548.48a1,1,0,0,1-.67-.26c-.19-.17-19.16-17.16-36-29.65a1,1,0,1,1,1.19-1.6C948,529.51,967,546.56,967.19,546.73a1,1,0,0,1,.07,1.42A1,1,0,0,1,966.52,548.48Z" transform="translate(-155.04 -65.6)"/><path class="cls-10" d="M943.46,549.13a1,1,0,0,1-.66-.25c-.14-.13-14.3-12.56-21.3-17a1,1,0,0,1,1.07-1.69c7.13,4.54,21,16.68,21.56,17.2a1,1,0,0,1,.09,1.41A1,1,0,0,1,943.46,549.13Z" transform="translate(-155.04 -65.6)"/><path class="cls-10" d="M921.38,551.08a1,1,0,0,1-.61-.22l-9.85-7.79a1,1,0,1,1,1.24-1.57l9.85,7.79a1,1,0,0,1-.63,1.79Z" transform="translate(-155.04 -65.6)"/><rect class="cls-4" x="706.18" y="486.55" width="143.04" height="7.49"/><rect class="cls-2" x="580.82" y="507.48" width="27.8" height="318.32"/><rect class="cls-2" x="848.48" y="507.48" width="27.8" height="318.32"/><rect class="cls-2" x="539.03" y="492.49" width="379.03" height="25.35" rx="6.92"/><path class="cls-4" d="M378.81,130.46q-.37-14.81-.37-28t1.5-34.4a208.65,208.65,0,0,1,31.3-2.43V77.13q-10.59,0-19.68.65-.37,10.5-.47,16.12A140.64,140.64,0,0,1,408,92.68L409.74,103q-6.27.11-18.84,1.41,0,11.25.1,16.22a187.55,187.55,0,0,0,19.49-2.82l1.6,10.31a44.85,44.85,0,0,1-18.84,3.66Z" transform="translate(-155.04 -65.6)"/><path class="cls-4" d="M424.27,132.8l-9.94-2.9a190.53,190.53,0,0,1,10.88-21.19,76.08,76.08,0,0,1-7.88-23.15l10.41,1a90.9,90.9,0,0,0,3.84,13.5,79.35,79.35,0,0,0,8.16-16.59l8.06,3.94a69.5,69.5,0,0,1-11.53,20.9,66.89,66.89,0,0,0,10.5,17.15l-7,6.66A83.77,83.77,0,0,1,430.46,117Q425.86,127.93,424.27,132.8Z" transform="translate(-155.04 -65.6)"/><path class="cls-4" d="M457.83,90a12.41,12.41,0,0,1,10.31-5.11,10.15,10.15,0,0,1,9.42,5.3q3,5.3,3,15t-1.12,26.91l-7.88-.66-.75-3a17.79,17.79,0,0,1-9,2.53,10.18,10.18,0,0,1-7.6-3.05q-3-3-3-8.76t5.67-9.84A22.63,22.63,0,0,1,470,105.06v-2.53q0-7.41-3.56-7.41-1.79,0-3.24,2.49a18.47,18.47,0,0,0-2.1,5.67l-8.63-.85A29,29,0,0,1,457.83,90Zm3,29.76q0,3,3.57,3a13.47,13.47,0,0,0,5.15-1.12l.19-7.88a12.05,12.05,0,0,0-6.66,2.21A5,5,0,0,0,460.82,119.77Z" transform="translate(-155.04 -65.6)"/><path class="cls-4" d="M510.13,88.28q5.72,0,8.71,3.94,4.88-7.12,9.66-7.13,13,0,13,19.59a232.38,232.38,0,0,1-1.88,26.81l-10.87-.94q1.79-17.52,1.78-26.71t-3-9.19q-1.32,0-3.09,4.22a33.36,33.36,0,0,0-2.35,9.37q-.18,11.73-.75,20.91l-11-1q.75-13.22.75-21.74t-2.35-8.53c-1,0-2.29,1.73-3.89,5.2A45.62,45.62,0,0,0,501.5,114q.11,8.63.85,17.81l-11-1q-1-13.22-1-24.09t.56-20.34l7.78.56q.57,2.53,1.6,9.19Q505.26,88.28,510.13,88.28Z" transform="translate(-155.04 -65.6)"/><path class="cls-4" d="M552.59,68.88l10.49,1.22-.93,10.49-10.5-1.31Zm-.75,16.49,10.68,1v45l-10.68-1Z" transform="translate(-155.04 -65.6)"/><path class="cls-4" d="M591.58,85.47q12.38,0,12.37,20.62,0,10.88-1.22,23.06l-11-1q1-10.68,1-21.6t-3.1-10.92q-1.5,0-3.84,7.55A67.83,67.83,0,0,0,583,117.9q.19,3.84.75,13.87l-11-1q-1-13.22-1-23.25t.56-18l6.93.75q.19.75,1.41,6.09Q586,85.47,591.58,85.47Z" transform="translate(-155.04 -65.6)"/><path class="cls-4" d="M616.88,90a12.43,12.43,0,0,1,10.31-5.11,10.13,10.13,0,0,1,9.42,5.3q3,5.3,3,15t-1.12,26.91l-7.88-.66-.75-3a17.83,17.83,0,0,1-9,2.53,10.17,10.17,0,0,1-7.59-3.05q-3-3-3-8.76t5.67-9.84a22.63,22.63,0,0,1,13.08-4.31v-2.53q0-7.41-3.56-7.41-1.78,0-3.24,2.49a18.48,18.48,0,0,0-2.11,5.67l-8.62-.85A29.09,29.09,0,0,1,616.88,90Zm3,29.76q0,3,3.56,3a13.48,13.48,0,0,0,5.16-1.12l.19-7.88a12.05,12.05,0,0,0-6.66,2.21A5,5,0,0,0,619.88,119.77Z" transform="translate(-155.04 -65.6)"/><path class="cls-4" d="M670.5,90.9v8.91q-4.5,0-6.94.09-.28,9.38-.28,31.5l-11.06-1q0-16.4.28-29.71c-.94,0-2.72.16-5.34.47l-1.41-7.69c1.5-.31,3.85-.71,7-1.21q.19-6.94.75-20.25l11.16,1q-.57,9.28-.85,18C665.4,90.94,667.62,90.9,670.5,90.9Z" transform="translate(-155.04 -65.6)"/><path class="cls-4" d="M677.9,68.88l10.5,1.22-.94,10.49L677,79.28Zm-.75,16.49,10.69,1v45l-10.69-1Z" transform="translate(-155.04 -65.6)"/><path class="cls-4" d="M695.05,112.37a43,43,0,0,1,3.57-17.06,17.59,17.59,0,0,1,5.29-6.89,12.12,12.12,0,0,1,7.64-2.67,13.33,13.33,0,0,1,7.26,1.92,12.56,12.56,0,0,1,4.64,5.11,30.46,30.46,0,0,1,3.1,13.68,38.36,38.36,0,0,1-4.17,18.14q-4.18,7.92-11.67,7.92Q695.05,132.52,695.05,112.37Zm11,.84q0,10.59,4.69,10.59c1.37,0,2.53-2,3.46-6a49.4,49.4,0,0,0,1.41-11.39q0-12-3.94-12-2.52,0-4.07,6.42A52.61,52.61,0,0,0,706,113.21Z" transform="translate(-155.04 -65.6)"/><path class="cls-4" d="M751.38,85.47q12.38,0,12.38,20.62,0,10.88-1.22,23.06l-11-1q1-10.68,1-21.6t-3.09-10.92q-1.5,0-3.84,7.55a67.24,67.24,0,0,0-2.91,14.76q.19,3.84.75,13.87l-11-1q-1-13.22-1-23.25t.57-18l6.93.75q.19.75,1.41,6.09Q745.85,85.47,751.38,85.47Z" transform="translate(-155.04 -65.6)"/><path class="cls-10" d="M216.17,810.65H216a1,1,0,0,1-.86-1.12c0-.12,1.54-11.74,0-18.58-1.6-7.15-1-18-1-18.5a1,1,0,1,1,2,.1c0,.11-.55,11.09,1,18,1.6,7.18.08,18.78,0,19.27A1,1,0,0,1,216.17,810.65Z" transform="translate(-155.04 -65.6)"/><path class="cls-13" d="M215.17,772.49s-7.49-11.68-8.62-29.49-3.37-23.86-12.37-30.81-13.86-11.77-13.86-25.67-10.5-19-9.38-26.87-3-39.36,3.75-39.77,15-3.22,26,11.68c0,0,6.25-11.07,8.25-17.92s8-25,21.24-20.33,14.2,13.69,9,25.16-1.52,25.34,0,28.18,1.89,10.28,3,14.1,3.81,29-6.19,53S215.17,772.49,215.17,772.49Z" transform="translate(-155.04 -65.6)"/><path class="cls-10" d="M215.17,774a1,1,0,0,1-.84-.46c-.31-.48-7.65-12.1-8.78-30s-3.36-23.42-12-30.07c-8.84-6.83-14.25-11.76-14.25-26.46,0-7.29-3-12.05-5.63-16.25-2.31-3.67-4.3-6.84-3.74-10.77.34-2.37.19-7,0-12.42-.54-16.32-.53-27.89,4.68-28.2.75-.05,1.51-.12,2.29-.2,6.25-.61,14-1.36,23.63,11,1.7-3.14,5.88-11.1,7.42-16.37,3.18-10.88,7.47-17.78,12.75-20.5a12,12,0,0,1,9.78-.49c5.91,2.07,9.79,5.17,11.52,9.21,1.92,4.51,1.28,10.18-2,17.31-5.05,11.09-1.45,24.64,0,27.28,1,1.85,1.51,5.29,2,8.61a52.12,52.12,0,0,0,1,5.71c1.42,5.12,3.42,30.49-6.22,53.6-9.87,23.64-20.6,58.35-20.71,58.7a1,1,0,0,1-.82.69ZM181.34,621c-1.46,0-2.86.14-4.22.27-.81.08-1.6.16-2.37.2-3.67.22-3.12,16.45-2.8,26.15.19,5.48.35,10.22,0,12.76-.45,3.2,1.27,5.95,3.45,9.42,2.65,4.21,5.94,9.45,5.94,17.32,0,13.79,4.87,18.23,13.47,24.87,9.1,7,11.6,13.22,12.76,31.53a69.13,69.13,0,0,0,7.36,27.06c2.54-8.06,11.63-36.4,20.08-56.67,10.1-24.2,7-49.34,6.14-52.3a54.08,54.08,0,0,1-1.09-5.94c-.45-3-.95-6.42-1.78-8-1.58-2.95-5.46-17.13,0-29.06,3-6.59,3.64-11.73,2-15.69-1.52-3.56-4.9-6.21-10.34-8.12a10,10,0,0,0-8.21.39c-4.77,2.46-8.72,8.95-11.74,19.28-2,6.88-8.08,17.68-8.34,18.13a1,1,0,0,1-1.67.11C192.51,622.72,186.57,621,181.34,621Z" transform="translate(-155.04 -65.6)"/><path class="cls-13" d="M215.17,721.31c.91-5,3.6-17.61,8.77-25.65s3.41-7.74,6.71-12.58,5.73-21.21,13.68-29.2,12.83-7.63,17.79-4.78,1.37,7,.88,15,0,14.92-.14,24.29-6.91,16.94-11.5,22.77S236.05,724.85,227.55,740s-12.38,33-12.38,33a120,120,0,0,1-1.45-17.28C213.48,745.05,214.37,725.71,215.17,721.31Z" transform="translate(-155.04 -65.6)"/><polygon class="cls-14" points="18.52 726.86 101.73 726.86 93.11 825.81 27.15 825.81 18.52 726.86"/><polygon class="cls-7" points="60.13 726.86 18.52 726.86 27.15 825.81 60.13 825.81 93.11 825.81 101.73 726.86 60.13 726.86"/><path d="M248.16,892.4h-66a1,1,0,0,1-1-.91l-8.62-99a1,1,0,0,1,1-1.09h83.21a1,1,0,0,1,.74.33,1,1,0,0,1,.25.76l-8.62,99A1,1,0,0,1,248.16,892.4Zm-65-2h64.13l8.45-96.95h-81Z" transform="translate(-155.04 -65.6)"/><path class="cls-10" d="M215.17,774h0a1,1,0,0,1-1-.87c-2.23-17.5-3-44.35,2.28-62.42,2.79-9.58,4.62-12.45,6.93-16.1,2.46-3.87,5.52-8.7,11.08-24,5.08-14,11.2-22,18.21-24a12.36,12.36,0,0,1,11.08,2.41c2.76,2.24,2.19,4.91,1.33,9a54.07,54.07,0,0,0-1.44,14.33c.05,1.54.14,3,.22,4.49.73,12.47,1.36,23.23-19.52,43-22.47,21.26-28.14,53.08-28.19,53.4A1,1,0,0,1,215.17,774ZM255.9,648.19a9.8,9.8,0,0,0-2.69.38c-4.36,1.21-10.83,6.14-16.86,22.74-5.64,15.53-8.76,20.46-11.27,24.41-2.23,3.51-4,6.29-6.7,15.59-4.63,15.89-4.52,38.77-2.86,55.82,2.75-10.35,10.31-32.55,27.45-48.77,20.21-19.11,19.63-29,18.91-41.41-.09-1.48-.18-3-.23-4.54a56.35,56.35,0,0,1,1.48-14.82c.88-4.1,1.09-5.59-.63-7A10.7,10.7,0,0,0,255.9,648.19Z" transform="translate(-155.04 -65.6)"/><path class="cls-10" d="M207.87,666.38a1,1,0,0,1-.81-.41c-13.62-18.51-7.57-33.61-7.3-34.24a1,1,0,0,1,1.3-.54,1,1,0,0,1,.54,1.31c-.06.14-5.84,14.74,7.07,32.29a1,1,0,0,1-.8,1.59Z" transform="translate(-155.04 -65.6)"/><path class="cls-4" d="M241.24,838.76h-.12a1,1,0,0,1-.88-1.11c2.07-18.41,3.7-33.53,3.71-33.68a1,1,0,1,1,2,.21c0,.15-1.65,15.28-3.71,33.7A1,1,0,0,1,241.24,838.76Z" transform="translate(-155.04 -65.6)"/><path class="cls-4" d="M237.91,861.22h-.13a1,1,0,0,1-.86-1.12c0-.08,1-7.9,1.46-13.22a1,1,0,0,1,1.08-.91,1,1,0,0,1,.91,1.08c-.46,5.36-1.46,13.23-1.47,13.31A1,1,0,0,1,237.91,861.22Z" transform="translate(-155.04 -65.6)"/><path class="cls-4" d="M251.29,692.28a1,1,0,0,1-.16-2h0s3.14-1,3.34-11.14c.22-11.23,0-14.43,0-14.46a1,1,0,0,1,.93-1.07,1,1,0,0,1,1.07.92c0,.13.22,3.27,0,14.65-.24,12-4.53,13-5,13.07Z" transform="translate(-155.04 -65.6)"/><path class="cls-4" d="M227.51,633.11a1,1,0,0,1-1-1c-.5-12.27,4.16-19,4.36-19.29A1,1,0,0,1,232.5,614h0c0,.06-4.46,6.52-4,18.06a1,1,0,0,1-1,1Z" transform="translate(-155.04 -65.6)"/><path class="cls-4" d="M180.24,660.63h-.07a1,1,0,0,1-.93-1.07c0-.1.66-10.41,0-16.57a68,68,0,0,1,0-12.86,1,1,0,0,1,2,.21,66.72,66.72,0,0,0,0,12.43c.68,6.34,0,16.49,0,16.92A1,1,0,0,1,180.24,660.63Z" transform="translate(-155.04 -65.6)"/><path class="cls-5" d="M1166.22,894.4H530.68a3,3,0,0,1,0-6h635.54a3,3,0,0,1,0,6Z" transform="translate(-155.04 -65.6)"/><path class="cls-5" d="M490.17,894.4H303.77a3,3,0,0,1,0-6h186.4a3,3,0,0,1,0,6Z" transform="translate(-155.04 -65.6)"/><path class="cls-5" d="M264.8,894.4H158a3,3,0,0,1,0-6H264.8a3,3,0,1,1,0,6Z" transform="translate(-155.04 -65.6)"/><path class="cls-9" d="M258,226.52l24.38,52.76a15.88,15.88,0,0,0,16.7,9.17c2.25-.34,4.48-.71,6.71-1.12q55.92-10.2,99.78-48.16a15.78,15.78,0,0,0,3.72-18.54l-24.36-52.74Z" transform="translate(-155.04 -65.6)"/><path class="cls-15" d="M258,226.52l24.38,52.76a15.88,15.88,0,0,0,16.7,9.17c2.25-.34,4.48-.71,6.71-1.12-7-7.54-14.11-16.53-16.11-23.48-4.23-14.67,22.65-6.09,56.2-19.84,23.89-9.79,43.3-33.91,52.5-47l-13.45-29.12Z" transform="translate(-155.04 -65.6)"/><path class="cls-16" d="M421.3,155.92,340,235.44a3.37,3.37,0,0,1-2.06.95l-52.46,4.69-2.43.22-57.79,5.17a3.38,3.38,0,0,1-2.66-5.78l81.33-79.52a3.4,3.4,0,0,1,2.06-.95l112.67-10.08A3.38,3.38,0,0,1,421.3,155.92Z" transform="translate(-155.04 -65.6)"/><polygon class="cls-9" points="152.04 99.77 258.91 90.2 181.74 165.65 74.87 175.21 152.04 99.77"/><path class="cls-15" d="M307.08,165.36,319,164.29l-40.34,39.45c-8.42,8.23-1.66,22.9,10.06,21.85l59.26-5.3-11.2,11-106.87,9.56Z" transform="translate(-155.04 -65.6)"/><path class="cls-2" d="M326.52,190.24c-.91-2-5.63-1.74-10.54.53s-8.15,5.71-7.24,7.68,5.63,1.74,10.54-.53S327.43,192.21,326.52,190.24Z" transform="translate(-155.04 -65.6)"/><path class="cls-7" d="M324,191.39c-.66-1.43-6.93-6.1-10.47-4.47s-3,9-2.35,10.39,4.06,1.25,7.6-.39S324.7,192.81,324,191.39Z" transform="translate(-155.04 -65.6)"/><polygon class="cls-7" points="163.42 129.37 130.41 175.49 127.98 175.71 127.87 175.47 161.76 128.12 163.42 129.37"/><path class="cls-7" d="M305.89,335c-.64-2.37-1.36-4.72-2.18-7a72.77,72.77,0,0,0-4.36-10.12h0a4.3,4.3,0,0,0,.12-1.83,4.14,4.14,0,0,0-3.62-3.52l-10.4-71.42-2.61.23,11,71.49a4.15,4.15,0,0,0-2.38,4.46,4.23,4.23,0,0,0,.86,2h0a141.39,141.39,0,0,0-1.1,24.27c0,.67.75.84.73.18-.18-4.82-.15-9.62.09-14.36.16-3.22.43-6.41.75-9.59a3.35,3.35,0,0,0,.52.41h0c-.06,4,0,8,.15,12.1q.11,3.89.29,7.78c.06,1.27.13,2.55.2,3.83,0,.59.07,1.19.1,1.79a6.82,6.82,0,0,0,.3,1.74c.08.25.35.25.39,0a6.86,6.86,0,0,0,.08-1.82c0-.6-.07-1.2-.1-1.79-.07-1.28-.14-2.56-.2-3.83q-.18-3.84-.32-7.66c-.13-3.95-.2-7.89-.31-11.84h0a3.27,3.27,0,0,0,.82.26c.29,4.7.56,9.4.91,14.1l.6,8.16c.19,2.68.35,5.36.61,8h0c.08.54.71.62.68,0-.13-2.71-.38-5.44-.58-8.16l-.6-8c-.35-4.68-.77-9.37-1.17-14.06a4.57,4.57,0,0,0,.74,0h0c.25,1.51.52,3,.76,4.55.4,2.56.82,5.12,1.2,7.68s.76,5.22,1.1,7.83c.17,1.29.33,2.57.49,3.86a26.56,26.56,0,0,0,.5,3.7c.12.42.53.3.55-.08a11.32,11.32,0,0,0-.17-1.92c-.07-.65-.15-1.29-.23-1.93-.16-1.29-.32-2.57-.49-3.86-.34-2.57-.7-5.14-1.1-7.7s-.81-5.21-1.28-7.8c-.27-1.47-.53-2.95-.82-4.43h0a3.79,3.79,0,0,0,.89-.33c.28,1.29.57,2.57.85,3.86q1.5,6.66,2.73,13.39c.43,2.29.82,4.58,1.19,6.88.18,1.1.35,2.21.52,3.32.09.59.18,1.19.26,1.79a8.46,8.46,0,0,0,.29,1.5h0c.13.33.5.35.53-.08a9.55,9.55,0,0,0-.21-1.91c-.09-.64-.19-1.28-.29-1.92-.19-1.27-.4-2.55-.61-3.82-1.3-7.84-2.89-15.6-4.9-23.23a4,4,0,0,0,.67-.56h0c.36,1.25.71,2.49,1,3.74,1.13,4.19,2.15,8.42,3,12.7.44,2.15.85,4.32,1.21,6.5.18,1,.35,2.09.5,3.14.09.59.18,1.17.26,1.76a6,6,0,0,0,.28,1.35c.15.38.48.3.52-.08a7.54,7.54,0,0,0-.18-1.88c-.08-.59-.17-1.17-.26-1.76-.19-1.22-.39-2.43-.61-3.64a167.73,167.73,0,0,0-5.37-22.33,3.4,3.4,0,0,0,.31-.52c1.47,3.17,2.86,6.39,4.05,9.77.78,2.22,1.49,4.49,2.11,6.79s1.12,4.79,1.62,7.22c.13.63.8.55.69-.11C307.14,339.78,306.53,337.35,305.89,335Z" transform="translate(-155.04 -65.6)"/></svg>